<?xml version="1.0" encoding="utf-8"?>
<!-- Generator: Adobe Illustrator 15.1.0, SVG Export Plug-In . SVG Version: 6.00 Build 0)  -->
<!DOCTYPE svg PUBLIC "-//W3C//DTD SVG 1.1//EN" "http://www.w3.org/Graphics/SVG/1.1/DTD/svg11.dtd">
<svg version="1.1" id="Слой_1" xmlns="http://www.w3.org/2000/svg" xmlns:xlink="http://www.w3.org/1999/xlink" x="0px" y="0px"
	 width="566.93px" height="566.93px" viewBox="0 0 566.93 566.93" enable-background="new 0 0 566.93 566.93" xml:space="preserve">
<g>
	<path fill-rule="evenodd" clip-rule="evenodd" fill="#FFFFFF" d="M312.938,56.397l148.484,85.727
		c10.527,6.077,18.843,14.399,24.553,24.294c5.736,9.934,8.799,21.266,8.799,33.326v171.454c0,12.059-3.063,23.393-8.799,33.328
		c-5.71,9.893-14.025,18.213-24.553,24.293l-148.484,85.727c-10.568,6.102-21.902,9.152-33.231,9.152
		c-11.329,0-22.663-3.051-33.23-9.152L97.994,428.818c-10.526-6.08-18.844-14.4-24.555-24.293
		c-5.734-9.936-8.796-21.27-8.796-33.328V199.744c0-12.06,3.062-23.392,8.796-33.326c5.711-9.895,14.029-18.217,24.555-24.294
		l21.523-12.426c2.869,10.099,8.205,19.16,15.314,26.488l-21.595,12.468c-5.758,3.322-10.25,7.779-13.269,13.007
		c-2.996,5.19-4.596,11.334-4.596,18.082v171.454c0,6.748,1.601,12.893,4.596,18.082c3.019,5.23,7.511,9.684,13.269,13.01
		l148.484,85.727c5.715,3.301,11.852,4.951,17.985,4.951c6.136,0,12.271-1.65,17.987-4.951l148.483-85.727
		c5.758-3.326,10.252-7.779,13.271-13.01c2.995-5.189,4.597-11.334,4.597-18.082V199.744c0-6.747-1.602-12.892-4.597-18.082
		c-3.019-5.229-7.513-9.685-13.271-13.007l-74.242-42.864l-74.241-42.863c-5.717-3.301-11.852-4.951-17.987-4.951
		c-6.133,0-12.27,1.65-17.985,4.951l-21.525,12.427c-2.87-10.1-8.207-19.16-15.314-26.489l21.594-12.467
		c10.567-6.1,21.901-9.152,33.23-9.152C291.035,47.246,302.369,50.296,312.938,56.397z"/>
	<path fill-rule="evenodd" clip-rule="evenodd" fill="#FFFFFF" d="M179.856,68.865c12.056,0,22.972,4.888,30.873,12.79
		c7.901,7.9,12.79,18.816,12.79,30.872c0,12.056-4.888,22.972-12.79,30.873c-7.9,7.9-18.817,12.788-30.873,12.788
		c-12.055,0-22.971-4.888-30.871-12.788c-7.901-7.9-12.79-18.817-12.79-30.873c0-12.055,4.888-22.971,12.79-30.872
		C156.885,73.753,167.801,68.865,179.856,68.865L179.856,68.865z M198.124,94.258c-4.672-4.673-11.133-7.566-18.268-7.566
		c-7.135,0-13.594,2.893-18.268,7.566c-4.674,4.673-7.565,11.134-7.565,18.268c0,7.136,2.891,13.594,7.565,18.268
		c4.673,4.673,11.132,7.565,18.268,7.565c7.135,0,13.595-2.892,18.268-7.565c4.673-4.674,7.567-11.132,7.567-18.268
		C205.691,105.392,202.797,98.932,198.124,94.258z"/>
	<path display="none" fill-rule="evenodd" clip-rule="evenodd" fill="#FFFFFF" d="M628.091,410.707
		c-14.418,0-26.728-5.104-36.934-15.305c-10.201-10.205-15.304-22.516-15.304-36.936V218.06c0-14.418,5.103-26.785,15.304-37.098
		c10.206-10.316,22.516-15.474,36.934-15.474h50.574c14.418,0,26.727,5.157,36.933,15.474c10.201,10.313,15.305,22.68,15.305,37.098
		v4.99c0,3.549-1.776,5.324-5.323,5.324h-10.318c-3.547,0-5.318-1.775-5.318-5.324v-4.99c0-8.874-3.051-16.36-9.153-22.46
		c-6.097-6.099-13.473-9.148-22.124-9.148h-50.574c-8.652,0-16.028,3.05-22.126,9.148c-6.102,6.101-9.152,13.586-9.152,22.46
		v140.407c0,8.652,3.051,16.029,9.152,22.127c6.098,6.1,13.474,9.15,22.126,9.15h50.574c8.651,0,16.027-3.051,22.124-9.15
		c6.103-6.098,9.153-13.475,9.153-22.127v-12.643c0-2.883,1.054-5.379,3.161-7.486c2.104-2.107,4.602-3.162,7.487-3.162h4.988
		c3.547,0,5.323,1.777,5.323,5.324v17.967c0,14.42-5.104,26.73-15.305,36.936c-10.206,10.201-22.515,15.305-36.933,15.305H628.091z"
		/>
	<path display="none" fill-rule="evenodd" clip-rule="evenodd" fill="#FFFFFF" d="M849.186,165.488
		c16.859,0,31.222,5.935,43.089,17.801c11.868,11.868,17.799,26.23,17.799,43.088v119.447c0,18.412-5.876,33.826-17.633,46.248
		s-26.175,18.635-43.255,18.635h-24.954c-16.86,0-31.222-5.934-43.089-17.801c-11.868-11.869-17.799-26.229-17.799-43.09v-0.996
		c0-1.332,0.497-2.551,1.495-3.66s2.272-1.664,3.828-1.664h9.313c1.775,0,3.272,0.611,4.491,1.83
		c1.225,1.219,1.832,2.717,1.832,4.49c0,10.869,3.884,20.242,11.646,28.115c7.762,7.877,17.192,11.813,28.281,11.813h24.954
		c11.757,0,21.407-4.324,28.948-12.977c7.317-8.428,10.979-18.744,10.979-30.943v-53.9c-0.888,1.33-2.329,2.994-4.325,4.99
		c-1.998,1.998-6.434,4.715-13.313,8.152c-6.876,3.438-14.306,5.156-22.29,5.156h-33.274c-16.854,0-31.221-5.932-43.083-17.799
		c-11.869-11.869-17.804-26.23-17.804-43.089v-22.958c0-16.857,5.935-31.22,17.804-43.088
		c11.862-11.866,26.229-17.801,43.083-17.801H849.186L849.186,165.488z M849.186,289.263c10.869,0,20.242-3.939,28.115-11.813
		c7.874-7.874,11.813-17.246,11.813-28.115v-22.958c0-11.091-3.938-20.518-11.813-28.281c-7.873-7.764-17.246-11.645-28.115-11.645
		h-33.274c-10.868,0-20.237,3.881-28.114,11.645c-7.874,7.763-11.813,17.19-11.813,28.281v22.958
		c0,10.87,3.939,20.241,11.813,28.115c7.877,7.873,17.246,11.813,28.114,11.813H849.186z"/>
	<path display="none" fill-rule="evenodd" clip-rule="evenodd" fill="#FFFFFF" d="M1003.402,410.707
		c-16.86,0-31.222-5.934-43.089-17.801c-11.868-11.869-17.799-26.229-17.799-43.09v-4.99c0-3.547,1.776-5.324,5.323-5.324h4.988
		c2.886,0,5.379,0.998,7.487,2.996c2.106,1.996,3.161,4.547,3.161,7.652c0,10.869,3.938,20.186,11.813,27.949
		c7.872,7.764,17.246,11.645,28.115,11.645h33.273c11.09,0,20.52-3.881,28.281-11.645c7.763-7.764,11.642-17.191,11.642-28.283
		v-29.279c0-11.09-3.879-20.516-11.642-28.281c-7.762-7.764-17.191-11.644-28.281-11.644h-73.201
		c-5.766,0-10.703-1.997-14.803-5.989c-4.104-3.993-6.157-8.873-6.157-14.64v-83.846c0-2.884,0.998-5.379,2.995-7.487
		c1.993-2.106,4.437-3.162,7.316-3.162h127.104c1.33,0,2.495,0.5,3.493,1.498c0.998,0.999,1.495,2.274,1.495,3.826v5.324
		c0,2.884-0.999,5.323-2.995,7.32c-1.993,1.996-4.437,2.995-7.316,2.995H963.475v73.532h73.201c16.855,0,31.217,5.877,43.084,17.634
		c11.868,11.756,17.804,26.064,17.804,42.92v29.279c0,16.861-5.936,31.221-17.804,43.09c-11.867,11.867-26.229,17.801-43.084,17.801
		H1003.402z"/>
</g>
</svg>
