<?xml version="1.0" encoding="utf-8"?>
<!-- Generator: Adobe Illustrator 15.1.0, SVG Export Plug-In  -->
<!DOCTYPE svg PUBLIC "-//W3C//DTD SVG 1.1//EN" "http://www.w3.org/Graphics/SVG/1.1/DTD/svg11.dtd" [
	<!ENTITY ns_flows "http://ns.adobe.com/Flows/1.0/">
]>
<svg version="1.1"
	 xmlns="http://www.w3.org/2000/svg" xmlns:xlink="http://www.w3.org/1999/xlink" xmlns:a="http://ns.adobe.com/AdobeSVGViewerExtensions/3.0/"
	 x="0px" y="0px" width="200px" height="200px" viewBox="-24.752 -12.19 200 200" enable-background="new -24.752 -12.19 200 200"
	 xml:space="preserve">
<defs>
</defs>
<path fill-rule="evenodd" clip-rule="evenodd" fill="#FFFFFF" d="M89.803,3.328l53.508,30.894c3.821,2.205,6.852,5.245,8.929,8.833
	c2.076,3.586,3.198,7.721,3.198,12.117v61.788c0,4.396-1.122,8.53-3.198,12.116c-2.077,3.588-5.107,6.628-8.929,8.833
	l-53.508,30.894c-3.844,2.22-7.965,3.328-12.084,3.328s-8.239-1.108-12.082-3.328l-53.509-30.894
	c-3.82-2.205-6.853-5.245-8.93-8.833C1.122,125.489,0,121.355,0,116.959V55.171c0-4.396,1.123-8.531,3.198-12.117
	c2.077-3.588,5.109-6.627,8.93-8.833l7.995-4.616l0.075,0.266c0.508,1.787,1.232,3.482,2.143,5.057
	c0.925,1.602,2.044,3.078,3.324,4.397l0.192,0.198l-0.239,0.138c-0.98,0.566-1.949,1.096-2.895,1.613
	c-6.049,3.309-11.217,6.138-11.217,13.897v61.788c0,2.382,0.558,4.546,1.629,6.409c1.068,1.861,2.651,3.425,4.7,4.607l53.508,30.894
	c2.027,1.171,4.201,1.755,6.375,1.755s4.349-0.584,6.374-1.755l53.51-30.894c2.049-1.183,3.632-2.746,4.7-4.607
	c1.07-1.863,1.628-4.027,1.628-6.409V55.171c0-2.382-0.558-4.547-1.628-6.41c-1.068-1.861-2.651-3.424-4.7-4.607l-53.51-30.894
	c-6.716-3.877-11.925-0.709-17.753,2.834c-0.91,0.552-1.833,1.113-2.752,1.643l-0.239,0.139l-0.076-0.267
	c-0.508-1.786-1.231-3.482-2.142-5.057c-0.927-1.601-2.045-3.078-3.325-4.396l-0.191-0.198l0.238-0.138
	c0.93-0.537,1.818-1.067,2.695-1.591C65.971,2.996,70.993,0,77.719,0c2.07,0,4.141,0.281,6.182,0.842
	C85.913,1.397,87.893,2.226,89.803,3.328z"/>
<path fill-rule="evenodd" clip-rule="evenodd" fill="#DA6E7C" stroke="#DA6E7C" stroke-width="1.1999" stroke-miterlimit="22.9256" d="
	M41.736,8.007c13.969,0,21.014,16.971,11.125,26.859c-9.889,9.888-26.86,2.845-26.86-11.125
	C26.002,15.053,33.047,8.007,41.736,8.007L41.736,8.007z M48.319,17.158c-5.848-5.848-15.892-1.688-15.892,6.583
	c0,8.271,10.045,12.43,15.892,6.583C51.955,26.689,51.955,20.792,48.319,17.158z"/>
</svg>
