<svg xmlns="http://www.w3.org/2000/svg" xml:space="preserve" id="Layer_1" x="0" y="0" version="1.1" viewBox="0 0 708.7 708.7"><style>.st0{fill:#151515}</style><g id="layer_g"><path d="m271.4 338.1-20.5 103.4c-7 35.7-19.3 62-36.7 78.8-17.5 16.8-40.9 25.2-70.3 25.2s-50.9-10-63.6-30c-8.4-13.6-12.6-30.8-12.6-51.4 0-19.6 5.3-56.2 15.8-109.8 11.2-55.6 20.7-94.1 28.4-115.3s17.5-37.7 29.4-49.6c17.5-17.3 40.6-26.1 69.3-26.1s48.7 8.2 62 24.7c10.5 13.3 15.8 30.8 15.8 52.5 0 9.8-.5 17.8-1.6 24.2H231c1.1-5.3 1.6-12.3 1.6-21 0-20.3-8.8-30.5-26.3-30.5-10.8 0-19.8 3.7-26.8 11.1-7.3 7.7-13.6 19.7-18.6 36-5.1 16.3-12.3 47.7-21.8 94.2-10.5 53.2-15.8 89.6-15.8 109.2 0 21.3 8.8 32 26.3 32 23.5 0 38.5-16.6 45.2-49.9l12.6-62.5h-34.2l8.4-45.2zM281.9 541.4l74.5-373.9h87.7q75.6 0 75.6 67.8c0 12.3-1.6 26.5-4.7 42.5-6.3 30.8-14 53.1-23.1 67-9.1 13.8-21.9 24.4-38.3 31.7l20 164.9H418l-16.8-154.9h-32.5l-31 154.9zM378 338.1h33.6c24.2 0 40.1-20.1 47.8-60.4 2.4-13 3.7-22.9 3.7-30 0-20.3-9.8-30.5-29.4-30.5h-31.5zM515.6 541.3l53.5-268.9h52.6l-53.6 268.9z" class="st0"/><path d="m577.5 196.7.6-3.1c3-14.8 16-25.4 31.1-25.4 20 0 35.1 18.4 31.1 38.1l-.6 3.1c-3 14.8-16 25.4-31.1 25.4-20.1 0-35.1-18.4-31.1-38.1" style="fill:#f15e3d"/></g></svg>