<svg xmlns="http://www.w3.org/2000/svg" xml:space="preserve" id="Layer_1" x="0" y="0" viewBox="0 0 944 944"><style>.st1{fill:#fff}</style><ellipse cx="472" cy="472" rx="471.99" ry="472" style="fill:#05a435" transform="rotate(-86.491 472.034 472.014)"/><path d="M541.78 288.11h-85.01c-2.91 0-5.24 2.33-5.24 5.05v157.01c0 2.72 2.32 5.05 5.24 5.05h85.01c2.91 0 5.24-2.33 5.24-5.05v-28.72c0-2.92-2.33-5.24-5.24-5.24h-46v-28.52h37.86c2.91 0 5.24-2.34 5.24-5.25v-28.52a5.22 5.22 0 0 0-5.24-5.24h-37.86v-21.54h46c2.91 0 5.24-2.34 5.24-5.25v-28.72c-.01-2.73-2.33-5.06-5.24-5.06M649.97 288.11h-84.99c-2.93 0-5.25 2.33-5.25 5.05v157.01c0 2.72 2.33 5.05 5.25 5.05h84.99c2.91 0 5.24-2.33 5.24-5.05v-28.72c0-2.92-2.33-5.24-5.24-5.24h-46v-28.52h37.86c2.91 0 5.25-2.34 5.25-5.25v-28.52c0-2.91-2.34-5.24-5.25-5.24h-37.86v-21.54h46c2.91 0 5.24-2.34 5.24-5.25v-28.72c0-2.73-2.33-5.06-5.24-5.06M433.09 419.31v-23.29c0-11.06-6.99-20.96-17.68-24.45v-.39c14.96-6.21 21.94-19.99 21.94-35.52 0-27.94-19.01-47.55-55.3-47.55h-56.1c-2.91 0-5.24 2.33-5.24 5.05v157.01c0 2.72 2.33 5.05 5.24 5.05h33.77c2.91 0 5.24-2.33 5.24-5.05v-62.49h9.71c8.34 0 14.36 6.21 14.36 14.36v28.92c0 15.72 10.88 26.59 27.37 26.59 16.11 0 24.65-10.28 24.65-22.71 0-5.24-1.93-8.54-1.93-8.54-4.49 0-6.03-2.52-6.03-6.99m-55.71-63.85h-12.42v-28.33h12.42c8.54 0 14.36 6.41 14.36 14.16 0 7.96-5.83 14.17-14.36 14.17M299.75 379.14h-33.77a5.22 5.22 0 0 0-5.24 5.24v29.15s-8.68 3.46-20.96 3.46c-26.78 0-40.96-17.07-40.96-45.41 0-30.47 16.11-45.42 38.03-45.42 26.41 0 31.64 25.03 31.64 25.03s4.86 1.55 10.68 1.55c14.94 0 23.87-9.12 23.87-24.65 0-20.57-23.87-42.31-66.96-42.31-50.26 0-82.69 32.23-82.69 85.79 0 55.12 34.16 85.98 84.04 85.98 33.97 0 55.9-12.43 64.25-17.66 2.15-1.36 3.3-3.11 3.3-5.63v-49.88a5.205 5.205 0 0 0-5.23-5.24M785.36 288.11h-28.73c-2.72 0-5.04 2.33-5.04 5.24v72l-.37-.02-45.06-72.77c-2.11-3.3-3.87-4.46-6.98-4.46h-26c-2.91 0-5.25 2.33-5.25 5.24v156.82c0 2.72 2.34 5.05 5.25 5.05h28.52c2.91 0 5.25-2.33 5.25-5.05v-71.62h.34l44.68 72.2c1.74 2.91 3.69 4.46 6.99 4.46h26.39c2.89 0 5.24-2.33 5.24-5.05V293.36a5.213 5.213 0 0 0-5.23-5.25M785.38 488.79h-82.49c-2.91 0-5.24 2.33-5.24 5.04v157.01c0 2.72 2.33 5.04 5.24 5.04h82.49c2.89 0 5.24-2.33 5.24-5.04v-28.72c0-2.89-2.34-5.24-5.24-5.24H741.9v-28.52h35.32a5.23 5.23 0 0 0 5.25-5.25v-28.52c0-2.92-2.34-5.24-5.25-5.24H741.9V527.8h43.48c2.89 0 5.24-2.33 5.24-5.24v-28.72c-.01-2.72-2.35-5.05-5.24-5.05M563.92 488.79h-33.77c-2.91 0-5.24 2.33-5.24 5.04v111.03c0 8.33-4.28 12.8-10.49 12.8-6.02 0-10.47-4.46-10.47-12.8V493.83c0-2.71-2.34-5.04-5.25-5.04h-33.77c-2.72 0-5.04 2.33-5.04 5.04v113.73c0 29.71 19.2 50.66 54.54 50.66 35.32 0 54.54-20.95 54.54-50.66V493.83c-.01-2.71-2.33-5.04-5.05-5.04M365.17 486.46c-49.67 0-82.1 32.22-82.1 85.78 0 53.76 32.42 85.98 82.1 85.98 49.89 0 82.1-32.22 82.1-85.98 0-53.56-32.22-85.78-82.1-85.78m0 131.2c-21.54 0-36.47-16.31-36.47-45.42 0-28.92 14.93-45.42 36.47-45.42 21.55 0 36.68 16.5 36.68 45.42 0 29.11-15.14 45.42-36.68 45.42M265.41 488.79h-33.76c-2.73 0-5.06 2.33-5.06 5.04v55.51h-21.16v-55.51c0-2.71-2.33-5.04-5.06-5.04h-33.95c-2.72 0-5.06 2.33-5.06 5.04v156.81c0 2.91 2.34 5.24 5.06 5.24h33.95c2.73 0 5.06-2.33 5.06-5.24v-62.29h21.16v62.29c0 2.91 2.33 5.24 5.06 5.24h33.76a5.22 5.22 0 0 0 5.24-5.24V493.83c-.01-2.71-2.33-5.04-5.24-5.04M634.14 524.91c16.1 0 18.81 20.75 18.81 20.75s3.71 1.36 9.72 1.36c13.97 0 22.68-7.72 22.68-23.87 0-19.21-18.03-36.66-50.68-36.66-32.33 0-52.57 20.36-52.57 47.15 0 18.98 6.5 30.78 21.48 42.87l34.28 27.45c3.41 2.76 4.55 5 4.55 7.95 0 3.89-2.6 7.9-9.02 7.9-16.28 0-18.86-20.75-18.86-20.75s-3.89-1.36-9.68-1.36c-14.8 0-22.75 8.3-22.75 23.87 0 19.03 17.69 36.65 51.45 36.65 32.59 0 51.81-21.57 51.81-47.14 0-18.43-6.59-31.2-21.46-42.87l-34.29-27.45c-2.94-2.36-4.54-4.65-4.54-7.95-.01-4.6 3.31-7.9 9.07-7.9" class="st1"/></svg>