<svg xmlns="http://www.w3.org/2000/svg" viewBox="0 0 220 220"><g fill="#0097B3" fill-rule="evenodd"><path d="m102.649 89.499-6.936 34.763h7.877l6.936-34.763zM24.812 89.499h-7.877L10 124.262h7.877zM100.095 89.499H92.22l-14.661 24.127-4.63-24.127H65.05l6.665 34.763h7.25zM139.977 89.499h-25.708l-1.363 7.303h8.948l-5.486 27.46h7.877l5.475-27.46h8.904zM55.259 89.499 50.67 112.5 38.618 89.5h-6.806l-6.924 34.763h7.584l4.599-23.056 12.02 23.056h6.828L62.843 89.5zM158.706 89.499H144.26l-6.935 34.763h7.92l5.41-27.46h6.805a5.04 5.04 0 0 1 3.7 1.374 3.9 3.9 0 0 1 1.018 3.051c-.336 3.495-3.084 5.107-6.644 5.107h-5.745l7.4 17.928h7.878l-4.923-11.901a11.45 11.45 0 0 0 9.986-11.307c.325-6.74-4.63-11.555-11.458-11.555"/><path fill-rule="nonzero" d="M171.624 106.886c.6-10.116 9.029-17.984 19.162-17.885 10.484 0 17.56 7.952 16.987 17.874-.6 10.116-9.029 17.983-19.162 17.885-10.484 0-17.56-7.953-16.976-17.874m28.813 0a9.922 9.922 0 0 0-10.138-10.82c-6.074-.023-11.083 4.752-11.35 10.82a9.922 9.922 0 0 0 10.138 10.82c6.078.029 11.093-4.748 11.36-10.82"/></g></svg>