<svg width="108" height="40" viewBox="0 0 108 40" fill="none" xmlns="http://www.w3.org/2000/svg">
<path d="M0 8C0 3.58172 3.58172 0 8 0H100C104.418 0 108 3.58172 108 8V32C108 36.4183 104.418 40 100 40H8C3.58172 40 0 36.4183 0 32V8Z" fill="#282B30"/>
<path d="M57.79 23.1797V31H56.1787V23.1797H57.79ZM62.4736 23.1797L59.3745 27.0415L57.5859 28.9644L57.2959 27.439L58.5044 25.7847L60.4971 23.1797H62.4736ZM60.6421 31L58.3379 27.3853L59.5303 26.3862L62.5488 31H60.6421Z" fill="white"/>
<path d="M52.1343 28.2124H50.1416V26.9556H52.1343C52.4422 26.9556 52.6929 26.9054 52.8862 26.8052C53.0796 26.7013 53.221 26.5581 53.3105 26.3755C53.4001 26.1929 53.4448 25.987 53.4448 25.7578C53.4448 25.5251 53.4001 25.3084 53.3105 25.1079C53.221 24.9074 53.0796 24.7463 52.8862 24.6245C52.6929 24.5028 52.4422 24.4419 52.1343 24.4419H50.7002V31H49.0889V23.1797H52.1343C52.7466 23.1797 53.2712 23.2907 53.708 23.5127C54.1484 23.7311 54.485 24.0337 54.7178 24.4204C54.9505 24.8071 55.0669 25.2493 55.0669 25.7471C55.0669 26.252 54.9505 26.6888 54.7178 27.0576C54.485 27.4264 54.1484 27.7111 53.708 27.9116C53.2712 28.1121 52.7466 28.2124 52.1343 28.2124Z" fill="white"/>
<path d="M44.8779 24.5171L42.751 31H41.0376L43.9434 23.1797H45.0337L44.8779 24.5171ZM46.645 31L44.5127 24.5171L44.3408 23.1797H45.4419L48.3638 31H46.645ZM46.5483 28.0889V29.3511H42.418V28.0889H46.5483Z" fill="white"/>
<path d="M78.8501 14.1865H80.5957C81.0648 14.1865 81.4604 14.2689 81.7827 14.4336C82.105 14.5947 82.3485 14.8185 82.5132 15.105C82.6815 15.3879 82.7656 15.7101 82.7656 16.0718C82.7656 16.3403 82.7191 16.5928 82.626 16.8291C82.5329 17.0618 82.3932 17.266 82.207 17.4414C82.0244 17.6169 81.797 17.7547 81.5249 17.855C81.2563 17.9517 80.9466 18 80.5957 18H78.125V12.1885H79.1187V17.1836H80.5957C80.8822 17.1836 81.1113 17.1317 81.2832 17.0278C81.4551 16.924 81.5786 16.7897 81.6538 16.625C81.729 16.4603 81.7666 16.2884 81.7666 16.1094C81.7666 15.9339 81.729 15.762 81.6538 15.5938C81.5786 15.4255 81.4551 15.2858 81.2832 15.1748C81.1113 15.0602 80.8822 15.0029 80.5957 15.0029H78.8501V14.1865Z" fill="white"/>
<path d="M75.1064 12.1885V18H74.1074V12.1885H75.1064ZM77.0562 12.1885V12.9941H72.1953V12.1885H77.0562Z" fill="white"/>
<path d="M70.2671 17.0063V14.0146C70.2671 13.7855 70.2205 13.5868 70.1274 13.4185C70.0379 13.2466 69.9019 13.1141 69.7192 13.021C69.5366 12.9279 69.311 12.8813 69.0425 12.8813C68.7918 12.8813 68.5716 12.9243 68.3818 13.0103C68.1956 13.0962 68.0488 13.209 67.9414 13.3486C67.8376 13.4883 67.7856 13.6387 67.7856 13.7998H66.792C66.792 13.5921 66.8457 13.3862 66.9531 13.1821C67.0605 12.978 67.2145 12.7936 67.415 12.6289C67.6191 12.4606 67.8626 12.3281 68.1455 12.2314C68.432 12.1312 68.7507 12.0811 69.1016 12.0811C69.5241 12.0811 69.8965 12.1527 70.2188 12.2959C70.5446 12.4391 70.7988 12.6558 70.9814 12.9458C71.1676 13.2323 71.2607 13.5921 71.2607 14.0254V16.7324C71.2607 16.9258 71.2769 17.1317 71.3091 17.3501C71.3449 17.5685 71.3968 17.7565 71.4648 17.9141V18H70.4282C70.3781 17.8854 70.3387 17.7332 70.3101 17.5435C70.2814 17.3501 70.2671 17.1711 70.2671 17.0063ZM70.439 14.4766L70.4497 15.1748H69.4453C69.1624 15.1748 68.91 15.1981 68.688 15.2446C68.466 15.2876 68.2798 15.3538 68.1294 15.4434C67.979 15.5329 67.8644 15.6457 67.7856 15.7817C67.7069 15.9142 67.6675 16.07 67.6675 16.249C67.6675 16.4316 67.7087 16.5981 67.791 16.7485C67.8734 16.8989 67.9969 17.0189 68.1616 17.1084C68.3299 17.1943 68.5358 17.2373 68.7793 17.2373C69.0837 17.2373 69.3522 17.1729 69.585 17.0439C69.8177 16.915 70.0021 16.7575 70.1382 16.5713C70.2778 16.3851 70.353 16.2043 70.3638 16.0288L70.7881 16.5068C70.763 16.6572 70.695 16.8237 70.584 17.0063C70.473 17.189 70.3244 17.3644 70.1382 17.5327C69.9556 17.6974 69.7371 17.8353 69.4829 17.9463C69.2323 18.0537 68.9494 18.1074 68.6343 18.1074C68.2404 18.1074 67.8949 18.0304 67.5977 17.8765C67.304 17.7225 67.0749 17.5166 66.9102 17.2588C66.749 16.9974 66.6685 16.7056 66.6685 16.3833C66.6685 16.0718 66.7293 15.7979 66.8511 15.5615C66.9728 15.3216 67.1483 15.1229 67.3774 14.9653C67.6066 14.8042 67.8823 14.6825 68.2046 14.6001C68.5269 14.5177 68.8867 14.4766 69.2842 14.4766H70.439Z" fill="white"/>
<path d="M65.2397 12.1885V18H64.2461V12.1885H65.2397ZM64.9014 14.8579V15.6743C64.7008 15.7495 64.4967 15.8175 64.2891 15.8784C64.085 15.9357 63.8683 15.9823 63.6392 16.0181C63.4136 16.0503 63.1683 16.0664 62.9033 16.0664C62.445 16.0664 62.0475 15.9876 61.7109 15.8301C61.3743 15.6689 61.1147 15.4272 60.9321 15.105C60.7495 14.7791 60.6582 14.3691 60.6582 13.875V12.1777H61.6519V13.875C61.6519 14.1973 61.7002 14.4587 61.7969 14.6592C61.8936 14.8597 62.035 15.0083 62.2212 15.105C62.4074 15.1981 62.6348 15.2446 62.9033 15.2446C63.1611 15.2446 63.4028 15.2285 63.6284 15.1963C63.8576 15.1605 64.076 15.1139 64.2837 15.0566C64.495 14.9993 64.7008 14.9331 64.9014 14.8579Z" fill="white"/>
<path d="M58.3003 17.0063V14.0146C58.3003 13.7855 58.2537 13.5868 58.1606 13.4185C58.0711 13.2466 57.9351 13.1141 57.7524 13.021C57.5698 12.9279 57.3442 12.8813 57.0757 12.8813C56.825 12.8813 56.6048 12.9243 56.415 13.0103C56.2288 13.0962 56.082 13.209 55.9746 13.3486C55.8708 13.4883 55.8188 13.6387 55.8188 13.7998H54.8252C54.8252 13.5921 54.8789 13.3862 54.9863 13.1821C55.0938 12.978 55.2477 12.7936 55.4482 12.6289C55.6523 12.4606 55.8958 12.3281 56.1787 12.2314C56.4652 12.1312 56.7839 12.0811 57.1348 12.0811C57.5573 12.0811 57.9297 12.1527 58.252 12.2959C58.5778 12.4391 58.832 12.6558 59.0146 12.9458C59.2008 13.2323 59.2939 13.5921 59.2939 14.0254V16.7324C59.2939 16.9258 59.3101 17.1317 59.3423 17.3501C59.3781 17.5685 59.43 17.7565 59.498 17.9141V18H58.4614C58.4113 17.8854 58.3719 17.7332 58.3433 17.5435C58.3146 17.3501 58.3003 17.1711 58.3003 17.0063ZM58.4722 14.4766L58.4829 15.1748H57.4785C57.1956 15.1748 56.9432 15.1981 56.7212 15.2446C56.4992 15.2876 56.313 15.3538 56.1626 15.4434C56.0122 15.5329 55.8976 15.6457 55.8188 15.7817C55.7401 15.9142 55.7007 16.07 55.7007 16.249C55.7007 16.4316 55.7419 16.5981 55.8242 16.7485C55.9066 16.8989 56.0301 17.0189 56.1948 17.1084C56.3631 17.1943 56.569 17.2373 56.8125 17.2373C57.1169 17.2373 57.3854 17.1729 57.6182 17.0439C57.8509 16.915 58.0353 16.7575 58.1714 16.5713C58.311 16.3851 58.3862 16.2043 58.397 16.0288L58.8213 16.5068C58.7962 16.6572 58.7282 16.8237 58.6172 17.0063C58.5062 17.189 58.3576 17.3644 58.1714 17.5327C57.9888 17.6974 57.7703 17.8353 57.5161 17.9463C57.2655 18.0537 56.9826 18.1074 56.6675 18.1074C56.2736 18.1074 55.9281 18.0304 55.6309 17.8765C55.3372 17.7225 55.1081 17.5166 54.9434 17.2588C54.7822 16.9974 54.7017 16.7056 54.7017 16.3833C54.7017 16.0718 54.7625 15.7979 54.8843 15.5615C55.006 15.3216 55.1815 15.1229 55.4106 14.9653C55.6398 14.8042 55.9155 14.6825 56.2378 14.6001C56.5601 14.5177 56.9199 14.4766 57.3174 14.4766H58.4722Z" fill="white"/>
<path d="M50.002 12.1885V18H49.0083V12.1885H50.002ZM53.8154 12.1885L51.0601 15.5186H49.6689L49.5186 14.6484H50.6572L52.6069 12.1885H53.8154ZM52.7466 18L50.6089 15.3682L51.248 14.6484L54.0088 18H52.7466Z" fill="white"/>
<path d="M46.6289 15.5132H47.6602C47.6064 16.0073 47.465 16.4495 47.2358 16.8398C47.0067 17.2301 46.6826 17.5399 46.2637 17.769C45.8447 17.9946 45.3219 18.1074 44.6953 18.1074C44.237 18.1074 43.8198 18.0215 43.4438 17.8496C43.0715 17.6777 42.751 17.4342 42.4824 17.1191C42.2139 16.8005 42.0062 16.4191 41.8594 15.9751C41.7161 15.5275 41.6445 15.0298 41.6445 14.4819V13.7031C41.6445 13.1553 41.7161 12.6593 41.8594 12.2153C42.0062 11.7677 42.2157 11.3846 42.4878 11.0659C42.7635 10.7472 43.0947 10.502 43.4814 10.3301C43.8682 10.1582 44.3032 10.0723 44.7866 10.0723C45.3774 10.0723 45.877 10.1833 46.2852 10.4053C46.6934 10.6273 47.0103 10.9352 47.2358 11.3291C47.465 11.7194 47.6064 12.1724 47.6602 12.688H46.6289C46.5788 12.3228 46.4857 12.0094 46.3496 11.748C46.2135 11.4831 46.0202 11.279 45.7695 11.1357C45.5189 10.9925 45.1912 10.9209 44.7866 10.9209C44.4393 10.9209 44.1331 10.9871 43.8682 11.1196C43.6068 11.2521 43.3866 11.4401 43.2075 11.6836C43.0321 11.9271 42.8996 12.2189 42.8101 12.5591C42.7205 12.8993 42.6758 13.277 42.6758 13.6924V14.4819C42.6758 14.8651 42.7152 15.2249 42.7939 15.5615C42.8763 15.8981 42.9998 16.1935 43.1646 16.4478C43.3293 16.702 43.5387 16.9025 43.793 17.0493C44.0472 17.1925 44.348 17.2642 44.6953 17.2642C45.1357 17.2642 45.4867 17.1943 45.748 17.0547C46.0094 16.915 46.2064 16.7145 46.3389 16.4531C46.4749 16.1917 46.5716 15.8784 46.6289 15.5132Z" fill="white"/>
<path d="M34.3998 26H11C11.3745 22.0705 13.6416 18.7139 16.9888 16.917L15.0477 13.5856C14.9382 13.3988 15.0019 13.1616 15.1904 13.0531C15.3789 12.9446 15.6183 13.0077 15.7279 13.1944L17.6944 16.5687C19.1948 15.8898 20.8837 15.5112 22.6999 15.5112C24.5162 15.5112 26.205 15.8898 27.7054 16.5687L29.672 13.1944C29.779 13.0077 30.021 12.9446 30.2069 13.0531C30.3929 13.1616 30.4591 13.3988 30.3496 13.5856L28.4085 16.917C31.7582 18.7139 34.0254 22.0705 34.3998 26ZM28.0697 22.7443C28.6123 22.7443 29.053 22.3077 29.0504 21.7727C29.0504 21.2377 28.6123 20.801 28.0697 20.801C27.5297 20.801 27.089 21.2351 27.089 21.7727C27.089 22.3077 27.5271 22.7443 28.0697 22.7443ZM17.3276 22.7443C17.8702 22.7443 18.3109 22.3077 18.3083 21.7727C18.3083 21.2377 17.8702 20.801 17.3276 20.801C16.7875 20.801 16.3469 21.2351 16.3469 21.7727C16.3469 22.3077 16.785 22.7443 17.3276 22.7443Z" fill="#3DDC84"/>
</svg>
