<?xml version="1.0" encoding="utf-8"?>
<svg width="123" height="40" viewBox="0 0 123 40" fill="none" xmlns="http://www.w3.org/2000/svg">
<path d="M0 8C0 3.58172 3.58172 0 8 0H115C119.418 0 123 3.58172 123 8V32C123 36.4183 119.418 40 115 40H8C3.58172 40 0 36.4183 0 32V8Z" fill="#282B30"/>
<g>
<path fill-rule="evenodd" clip-rule="evenodd" d="M14.734 8C9.80341 8 8 9.80309 8 14.7327V25.2673C8 30.1969 9.80341 32 14.734 32H25.2628C30.1932 32 32 30.1969 32 25.2673V14.7327C32 9.80309 30.1966 8 25.266 8H14.734Z" fill="#C8102E"/>
<path fill-rule="evenodd" clip-rule="evenodd" d="M18.4687 21.9195H19.4322L18.9488 20.7953L18.4687 21.9195ZM18.2314 22.486L17.9455 23.1401H17.2947L18.6787 20.0002H19.2412L20.6196 23.1401H19.9514L19.6692 22.486H18.2314ZM28.7043 23.1378H29.3333V20H28.7043V23.1378ZM26.2007 21.7899H27.3602V21.2177H26.2007V20.5746H27.8839V20.0023H25.5718V23.1399H27.9444V22.5676H26.2007V21.7899ZM23.7013 22.1606L22.9882 20H22.4678L21.7546 22.1606L21.0606 20.0017H20.382L21.4772 23.1419H22.0048L22.7191 21.0792L23.4334 23.1419H23.9656L25.058 20.0017H24.3969L23.7013 22.1606ZM16.3345 21.7986C16.3345 22.3093 16.0808 22.5823 15.6202 22.5823C15.157 22.5823 14.902 22.3014 14.902 21.7768V20.0021H14.2645V21.7986C14.2645 22.6822 14.7556 23.1889 15.6115 23.1889C16.4759 23.1889 16.9714 22.6726 16.9714 21.7723V20.0002H16.3345V21.7986ZM12.7435 20.0002H13.3807V23.1421H12.7435V21.8661H11.3041V23.1421H10.6666V20.0002H11.3041V21.2675H12.7435V20.0002Z" fill="#FFFFFF"/>
<path fill-rule="evenodd" clip-rule="evenodd" d="M20 16C17.7942 16 16 14.2056 16 12H16.565C16.565 13.8939 18.1061 15.4348 20 15.4348C21.8939 15.4348 23.435 13.8939 23.435 12H24C24 14.2056 22.2056 16 20 16Z" fill="#FFFFFF"/>
</g>
<path d="M46.8355 10H45.9548C45.9027 9.74669 45.8116 9.52415 45.6814 9.33239C45.5535 9.14062 45.3973 8.97964 45.2126 8.84943C45.0303 8.71686 44.8279 8.61742 44.6054 8.55114C44.3828 8.48485 44.1508 8.4517 43.9094 8.4517C43.469 8.4517 43.0701 8.56297 42.7126 8.78551C42.3575 9.00805 42.0746 9.33594 41.8639 9.76918C41.6556 10.2024 41.5514 10.7339 41.5514 11.3636C41.5514 11.9934 41.6556 12.5249 41.8639 12.9581C42.0746 13.3913 42.3575 13.7192 42.7126 13.9418C43.0701 14.1643 43.469 14.2756 43.9094 14.2756C44.1508 14.2756 44.3828 14.2424 44.6054 14.1761C44.8279 14.1098 45.0303 14.0116 45.2126 13.8814C45.3973 13.7488 45.5535 13.5866 45.6814 13.3949C45.8116 13.2008 45.9027 12.9782 45.9548 12.7273H46.8355C46.7692 13.099 46.6485 13.4316 46.4733 13.7251C46.2981 14.0187 46.0803 14.2685 45.8199 14.4744C45.5595 14.678 45.2671 14.8331 44.9427 14.9396C44.6208 15.0462 44.2763 15.0994 43.9094 15.0994C43.2891 15.0994 42.7375 14.9479 42.2545 14.6449C41.7716 14.3419 41.3916 13.911 41.1146 13.3523C40.8376 12.7936 40.6991 12.1307 40.6991 11.3636C40.6991 10.5966 40.8376 9.93371 41.1146 9.375C41.3916 8.81629 41.7716 8.38542 42.2545 8.08239C42.7375 7.77936 43.2891 7.62784 43.9094 7.62784C44.2763 7.62784 44.6208 7.68111 44.9427 7.78764C45.2671 7.89418 45.5595 8.05043 45.8199 8.25639C46.0803 8.45999 46.2981 8.70857 46.4733 9.00213C46.6485 9.29332 46.7692 9.62595 46.8355 10ZM48.145 15V9.54545H48.983V11.9176H49.537L51.4972 9.54545H52.5768L50.3751 12.1733L52.6052 15H51.5257L49.7359 12.6989H48.983V15H48.145ZM55.1212 15.1278C54.7755 15.1278 54.4619 15.0627 54.1801 14.9325C53.8984 14.8 53.6747 14.6094 53.509 14.3608C53.3432 14.1098 53.2604 13.8068 53.2604 13.4517C53.2604 13.1392 53.3219 12.8859 53.445 12.6918C53.5682 12.4953 53.7327 12.3414 53.9387 12.2301C54.1446 12.1188 54.3719 12.036 54.6205 11.9815C54.8714 11.9247 55.1235 11.8797 55.3769 11.8466C55.7083 11.804 55.977 11.772 56.183 11.7507C56.3913 11.727 56.5428 11.688 56.6375 11.6335C56.7346 11.5791 56.7831 11.4844 56.7831 11.3494V11.321C56.7831 10.9706 56.6872 10.6984 56.4955 10.5043C56.3061 10.3101 56.0184 10.2131 55.6325 10.2131C55.2325 10.2131 54.9188 10.3007 54.6915 10.4759C54.4642 10.651 54.3044 10.8381 54.2121 11.0369L53.4166 10.7528C53.5587 10.4214 53.7481 10.1634 53.9848 9.97869C54.2239 9.79167 54.4843 9.66146 54.7661 9.58807C55.0502 9.51231 55.3295 9.47443 55.6041 9.47443C55.7793 9.47443 55.9806 9.49574 56.2078 9.53835C56.4375 9.5786 56.6588 9.66264 56.8719 9.79048C57.0873 9.91832 57.2661 10.1113 57.4081 10.3693C57.5502 10.6274 57.6212 10.973 57.6212 11.4062V15H56.7831V14.2614H56.7405C56.6837 14.3797 56.589 14.5064 56.4564 14.6413C56.3238 14.7763 56.1475 14.8911 55.9273 14.9858C55.7071 15.0805 55.4384 15.1278 55.1212 15.1278ZM55.249 14.375C55.5805 14.375 55.8598 14.3099 56.0871 14.1797C56.3167 14.0495 56.4896 13.8814 56.6056 13.6754C56.7239 13.4695 56.7831 13.2528 56.7831 13.0256V12.2585C56.7476 12.3011 56.6695 12.3402 56.5487 12.3757C56.4304 12.4089 56.2931 12.4384 56.1368 12.4645C55.9829 12.4882 55.8326 12.5095 55.6858 12.5284C55.5414 12.545 55.4242 12.5592 55.3343 12.571C55.1164 12.5994 54.9128 12.6456 54.7235 12.7095C54.5364 12.7711 54.3849 12.8646 54.2689 12.9901C54.1553 13.1132 54.0985 13.2812 54.0985 13.4943C54.0985 13.7855 54.2062 14.0057 54.4216 14.1548C54.6394 14.3016 54.9152 14.375 55.249 14.375ZM63.3554 9.54545V15H62.5173V9.54545H63.3554ZM63.0287 12.1449V12.9261C62.8393 12.9972 62.6511 13.0599 62.464 13.1143C62.277 13.1664 62.0805 13.2079 61.8746 13.2386C61.6686 13.267 61.4425 13.2812 61.1963 13.2812C60.5784 13.2812 60.0824 13.1143 59.7084 12.7805C59.3367 12.4467 59.1508 11.946 59.1508 11.2784V9.53125H59.9889V11.2784C59.9889 11.5578 60.0422 11.7874 60.1487 11.9673C60.2552 12.1473 60.3997 12.281 60.5819 12.3686C60.7642 12.4562 60.969 12.5 61.1963 12.5C61.5514 12.5 61.8722 12.468 62.1586 12.4041C62.4475 12.3378 62.7375 12.2514 63.0287 12.1449ZM66.4981 15.1278C66.1525 15.1278 65.8388 15.0627 65.5571 14.9325C65.2754 14.8 65.0516 14.6094 64.8859 14.3608C64.7202 14.1098 64.6373 13.8068 64.6373 13.4517C64.6373 13.1392 64.6989 12.8859 64.822 12.6918C64.9451 12.4953 65.1096 12.3414 65.3156 12.2301C65.5216 12.1188 65.7488 12.036 65.9974 11.9815C66.2484 11.9247 66.5005 11.8797 66.7538 11.8466C67.0853 11.804 67.354 11.772 67.5599 11.7507C67.7683 11.727 67.9198 11.688 68.0145 11.6335C68.1115 11.5791 68.1601 11.4844 68.1601 11.3494V11.321C68.1601 10.9706 68.0642 10.6984 67.8724 10.5043C67.683 10.3101 67.3954 10.2131 67.0095 10.2131C66.6094 10.2131 66.2957 10.3007 66.0684 10.4759C65.8412 10.651 65.6814 10.8381 65.589 11.0369L64.7936 10.7528C64.9356 10.4214 65.125 10.1634 65.3618 9.97869C65.6009 9.79167 65.8613 9.66146 66.143 9.58807C66.4271 9.51231 66.7065 9.47443 66.9811 9.47443C67.1563 9.47443 67.3575 9.49574 67.5848 9.53835C67.8144 9.5786 68.0358 9.66264 68.2488 9.79048C68.4643 9.91832 68.643 10.1113 68.7851 10.3693C68.9271 10.6274 68.9981 10.973 68.9981 11.4062V15H68.1601V14.2614H68.1175C68.0606 14.3797 67.9659 14.5064 67.8334 14.6413C67.7008 14.7763 67.5244 14.8911 67.3042 14.9858C67.0841 15.0805 66.8154 15.1278 66.4981 15.1278ZM66.626 14.375C66.9574 14.375 67.2368 14.3099 67.464 14.1797C67.6937 14.0495 67.8665 13.8814 67.9825 13.6754C68.1009 13.4695 68.1601 13.2528 68.1601 13.0256V12.2585C68.1246 12.3011 68.0464 12.3402 67.9257 12.3757C67.8073 12.4089 67.67 12.4384 67.5138 12.4645C67.3599 12.4882 67.2095 12.5095 67.0628 12.5284C66.9184 12.545 66.8012 12.5592 66.7112 12.571C66.4934 12.5994 66.2898 12.6456 66.1004 12.7095C65.9134 12.7711 65.7619 12.8646 65.6459 12.9901C65.5322 13.1132 65.4754 13.2812 65.4754 13.4943C65.4754 13.7855 65.5831 14.0057 65.7986 14.1548C66.0164 14.3016 66.2922 14.375 66.626 14.375ZM71.3659 13.7642L73.9937 9.54545H74.9596V15H74.1215V10.7812L71.5079 15H70.5278V9.54545H71.3659V13.7642ZM73.4397 7.72727H74.221C74.221 8.1108 74.0884 8.42448 73.8232 8.66832C73.5581 8.91217 73.1982 9.03409 72.7437 9.03409C72.2963 9.03409 71.94 8.91217 71.6748 8.66832C71.412 8.42448 71.2806 8.1108 71.2806 7.72727H72.0619C72.0619 7.91193 72.1128 8.0741 72.2146 8.21378C72.3187 8.35346 72.4951 8.4233 72.7437 8.4233C72.9923 8.4233 73.1698 8.35346 73.2764 8.21378C73.3853 8.0741 73.4397 7.91193 73.4397 7.72727ZM75.7524 10.3267V9.54545H80.1842V10.3267H78.3944V15H77.5564V10.3267H75.7524ZM83.4104 15.1136C82.8849 15.1136 82.4315 14.9976 82.0503 14.7656C81.6715 14.5312 81.3792 14.2045 81.1732 13.7855C80.9696 13.3641 80.8678 12.8741 80.8678 12.3153C80.8678 11.7566 80.9696 11.2642 81.1732 10.8381C81.3792 10.4096 81.6656 10.0758 82.0326 9.83665C82.4019 9.59517 82.8328 9.47443 83.3252 9.47443C83.6093 9.47443 83.8898 9.52178 84.1668 9.61648C84.4438 9.71117 84.6959 9.86506 84.9232 10.0781C85.1505 10.2888 85.3316 10.5682 85.4665 10.9162C85.6015 11.2642 85.6689 11.6927 85.6689 12.2017V12.5568H81.4644V11.8324H84.8167C84.8167 11.5246 84.7551 11.25 84.632 11.0085C84.5113 10.767 84.3385 10.5765 84.1135 10.4368C83.891 10.2971 83.6282 10.2273 83.3252 10.2273C82.9914 10.2273 82.7026 10.3101 82.4587 10.4759C82.2172 10.6392 82.0314 10.8523 81.9012 11.1151C81.771 11.3778 81.7059 11.6596 81.7059 11.9602V12.4432C81.7059 12.8551 81.7769 13.2043 81.9189 13.4908C82.0634 13.7749 82.2634 13.9915 82.5191 14.1406C82.7748 14.2874 83.0719 14.3608 83.4104 14.3608C83.6306 14.3608 83.8295 14.33 84.007 14.2685C84.1869 14.2045 84.342 14.1098 84.4722 13.9844C84.6024 13.8565 84.703 13.6979 84.7741 13.5085L85.5837 13.7358C85.4985 14.0104 85.3553 14.2519 85.154 14.4602C84.9528 14.6662 84.7042 14.8272 84.4083 14.9432C84.1124 15.0568 83.7797 15.1136 83.4104 15.1136ZM90.5944 13.7642L93.2222 9.54545H94.1881V15H93.3501V10.7812L90.7364 15H89.7563V9.54545H90.5944V13.7642ZM95.3822 13.608H96.2771C96.296 13.8542 96.4073 14.0412 96.6109 14.169C96.8169 14.2969 97.0844 14.3608 97.4134 14.3608C97.7496 14.3608 98.0373 14.2921 98.2764 14.1548C98.5155 14.0152 98.635 13.7902 98.635 13.4801C98.635 13.2978 98.5901 13.1392 98.5001 13.0043C98.4101 12.867 98.2835 12.7604 98.1201 12.6847C97.9568 12.6089 97.7638 12.571 97.5413 12.571H96.6038V11.8182H97.5413C97.8751 11.8182 98.1213 11.7424 98.2799 11.5909C98.4409 11.4394 98.5214 11.25 98.5214 11.0227C98.5214 10.7789 98.435 10.5836 98.2622 10.4368C98.0893 10.2876 97.8443 10.2131 97.5271 10.2131C97.2075 10.2131 96.9411 10.2853 96.7281 10.4297C96.515 10.5717 96.4026 10.7552 96.3907 10.9801H95.51C95.5195 10.6866 95.6095 10.4273 95.7799 10.2024C95.9504 9.97514 96.1824 9.79759 96.4759 9.66974C96.7695 9.53954 97.1057 9.47443 97.4845 9.47443C97.868 9.47443 98.2006 9.5419 98.4823 9.67685C98.7664 9.80942 98.9854 9.99053 99.1393 10.2202C99.2955 10.4474 99.3737 10.7055 99.3737 10.9943C99.3737 11.3021 99.2873 11.5507 99.1144 11.7401C98.9416 11.9295 98.725 12.0644 98.4646 12.1449V12.2017C98.6705 12.2159 98.8493 12.2822 99.0008 12.4006C99.1547 12.5166 99.2742 12.6693 99.3595 12.8587C99.4447 13.0457 99.4873 13.2528 99.4873 13.4801C99.4873 13.8116 99.3985 14.1004 99.221 14.3466C99.0434 14.5904 98.7996 14.7798 98.4894 14.9148C98.1793 15.0473 97.8254 15.1136 97.4276 15.1136C97.0418 15.1136 96.6961 15.0509 96.3907 14.9254C96.0853 14.7976 95.8427 14.6212 95.6627 14.3963C95.4852 14.169 95.3917 13.9062 95.3822 13.608Z" fill="#FFFFFF"/>
<path d="M50.0555 31H48.5155L47.7035 28.76H42.8735L42.0335 31H40.5215L44.3295 21.13H46.3735L50.0555 31ZM45.2115 22.586L43.3775 27.444H47.2275L45.4635 22.586H45.2115ZM51.1626 33.87V23.762H52.1566L52.4926 24.966C52.7913 24.5833 53.1693 24.266 53.6266 24.014C54.0933 23.7527 54.6346 23.622 55.2506 23.622C55.9319 23.622 56.5386 23.7853 57.0706 24.112C57.6026 24.4293 58.0179 24.8727 58.3166 25.442C58.6246 26.0113 58.7786 26.66 58.7786 27.388C58.7786 28.1067 58.6246 28.7507 58.3166 29.32C58.0179 29.8893 57.6026 30.3373 57.0706 30.664C56.5386 30.9813 55.9319 31.14 55.2506 31.14C54.6533 31.14 54.1259 31.0187 53.6686 30.776C53.2113 30.524 52.8333 30.216 52.5346 29.852V33.87H51.1626ZM54.9566 29.908C55.4233 29.908 55.8386 29.8007 56.2026 29.586C56.5666 29.3713 56.8466 29.0727 57.0426 28.69C57.2479 28.3073 57.3506 27.8733 57.3506 27.388C57.3506 26.9027 57.2479 26.4687 57.0426 26.086C56.8466 25.7033 56.5666 25.4047 56.2026 25.19C55.8386 24.9753 55.4233 24.868 54.9566 24.868C54.4899 24.868 54.0699 24.9753 53.6966 25.19C53.3326 25.4047 53.0479 25.7033 52.8426 26.086C52.6373 26.4687 52.5346 26.9027 52.5346 27.388C52.5346 27.8733 52.6373 28.3073 52.8426 28.69C53.0479 29.0727 53.3326 29.3713 53.6966 29.586C54.0699 29.8007 54.4899 29.908 54.9566 29.908ZM60.2544 33.87V23.762H61.2484L61.5844 24.966C61.8831 24.5833 62.2611 24.266 62.7184 24.014C63.1851 23.7527 63.7264 23.622 64.3424 23.622C65.0237 23.622 65.6304 23.7853 66.1624 24.112C66.6944 24.4293 67.1097 24.8727 67.4084 25.442C67.7164 26.0113 67.8704 26.66 67.8704 27.388C67.8704 28.1067 67.7164 28.7507 67.4084 29.32C67.1097 29.8893 66.6944 30.3373 66.1624 30.664C65.6304 30.9813 65.0237 31.14 64.3424 31.14C63.7451 31.14 63.2177 31.0187 62.7604 30.776C62.3031 30.524 61.9251 30.216 61.6264 29.852V33.87H60.2544ZM64.0484 29.908C64.5151 29.908 64.9304 29.8007 65.2944 29.586C65.6584 29.3713 65.9384 29.0727 66.1344 28.69C66.3397 28.3073 66.4424 27.8733 66.4424 27.388C66.4424 26.9027 66.3397 26.4687 66.1344 26.086C65.9384 25.7033 65.6584 25.4047 65.2944 25.19C64.9304 24.9753 64.5151 24.868 64.0484 24.868C63.5817 24.868 63.1617 24.9753 62.7884 25.19C62.4244 25.4047 62.1397 25.7033 61.9344 26.086C61.7291 26.4687 61.6264 26.9027 61.6264 27.388C61.6264 27.8733 61.7291 28.3073 61.9344 28.69C62.1397 29.0727 62.4244 29.3713 62.7884 29.586C63.1617 29.8007 63.5817 29.908 64.0484 29.908ZM74.0362 25.834H78.7542V26.086C78.7542 27.066 78.5535 27.9387 78.1522 28.704C77.7509 29.4693 77.1815 30.0667 76.4442 30.496C75.7162 30.9253 74.8809 31.14 73.9382 31.14C72.9955 31.14 72.1462 30.9253 71.3902 30.496C70.6435 30.0573 70.0555 29.4553 69.6262 28.69C69.2062 27.9153 68.9962 27.038 68.9962 26.058C68.9962 25.0873 69.2015 24.2193 69.6122 23.454C70.0322 22.6793 70.6109 22.0773 71.3482 21.648C72.0855 21.2093 72.9162 20.99 73.8402 20.99C74.8389 20.99 75.7302 21.242 76.5142 21.746C77.2982 22.2407 77.8629 22.9127 78.2082 23.762L76.7802 23.986C76.4815 23.4447 76.0802 23.034 75.5762 22.754C75.0815 22.4647 74.5169 22.32 73.8822 22.32C73.2289 22.32 72.6455 22.4787 72.1322 22.796C71.6189 23.1133 71.2175 23.5567 70.9282 24.126C70.6482 24.686 70.5082 25.33 70.5082 26.058C70.5082 26.786 70.6529 27.4347 70.9422 28.004C71.2315 28.5733 71.6375 29.0167 72.1602 29.334C72.6829 29.6513 73.2755 29.81 73.9382 29.81C74.7875 29.81 75.5015 29.5673 76.0802 29.082C76.6589 28.5967 77.0369 27.9387 77.2142 27.108H74.0362V25.834ZM83.0167 23.622C83.9127 23.622 84.6173 23.916 85.1307 24.504C85.6533 25.0827 85.9147 25.8947 85.9147 26.94V31H84.9347L84.6127 29.866C84.3793 30.23 84.0667 30.5333 83.6747 30.776C83.2827 31.0187 82.8113 31.14 82.2607 31.14C81.7753 31.14 81.3413 31.042 80.9587 30.846C80.576 30.65 80.2773 30.3793 80.0627 30.034C79.848 29.6793 79.7407 29.2827 79.7407 28.844C79.7407 28.1627 80.0113 27.6167 80.5527 27.206C81.094 26.7953 81.878 26.59 82.9047 26.59H84.5427C84.5053 26.0207 84.3467 25.582 84.0667 25.274C83.7867 24.9567 83.4133 24.798 82.9467 24.798C82.592 24.798 82.2793 24.882 82.0087 25.05C81.738 25.218 81.5327 25.4373 81.3927 25.708L80.1187 25.498C80.3053 24.9193 80.6647 24.462 81.1967 24.126C81.7287 23.79 82.3353 23.622 83.0167 23.622ZM82.5547 29.978C83.1427 29.978 83.6187 29.7867 83.9827 29.404C84.356 29.012 84.5427 28.4753 84.5427 27.794V27.71H82.9467C81.7333 27.71 81.1267 28.074 81.1267 28.802C81.1267 29.1567 81.2573 29.4413 81.5187 29.656C81.78 29.8707 82.1253 29.978 82.5547 29.978ZM89.1632 31H87.7912V21.13H89.1632V31ZM92.5675 31H91.1955V21.13H92.5675V31ZM101.53 27.332C101.53 27.5187 101.525 27.6633 101.516 27.766H95.5378C95.6125 28.41 95.8645 28.9233 96.2938 29.306C96.7231 29.6887 97.2691 29.88 97.9318 29.88C98.3891 29.88 98.7951 29.7913 99.1498 29.614C99.5138 29.4273 99.7891 29.1847 99.9758 28.886L101.264 29.096C100.984 29.7493 100.531 30.2533 99.9058 30.608C99.2898 30.9627 98.6038 31.14 97.8478 31.14C97.1291 31.14 96.4851 30.9813 95.9158 30.664C95.3465 30.3373 94.9031 29.8893 94.5858 29.32C94.2685 28.7507 94.1098 28.1067 94.1098 27.388C94.1098 26.66 94.2685 26.0113 94.5858 25.442C94.9031 24.8727 95.3418 24.4293 95.9018 24.112C96.4618 23.7853 97.1011 23.622 97.8198 23.622C98.5291 23.622 99.1638 23.7853 99.7238 24.112C100.293 24.4293 100.736 24.8727 101.054 25.442C101.371 26.002 101.53 26.632 101.53 27.332ZM97.8198 24.84C97.2691 24.84 96.7931 25.0033 96.3918 25.33C95.9998 25.6567 95.7385 26.0953 95.6078 26.646H100.032C99.9105 26.1047 99.6491 25.6707 99.2478 25.344C98.8558 25.008 98.3798 24.84 97.8198 24.84ZM102.856 31V23.762H103.85L104.144 24.798C104.359 24.434 104.625 24.1727 104.942 24.014C105.259 23.846 105.637 23.762 106.076 23.762H106.412L106.524 25.078H105.74C105.236 25.078 104.858 25.2227 104.606 25.512C104.354 25.8013 104.228 26.1933 104.228 26.688V31H102.856ZM112.93 23.762H114.344L111.32 32.092C111.096 32.7173 110.802 33.17 110.438 33.45C110.074 33.73 109.589 33.87 108.982 33.87H107.904L107.778 32.61H109.066C109.337 32.61 109.547 32.5493 109.696 32.428C109.845 32.316 109.971 32.1153 110.074 31.826L110.228 31.406L107.008 23.762H108.478L110.774 29.348H110.97L112.93 23.762Z" fill="#FFFFFF"/>
</svg>
