<svg width="108" height="40" viewBox="0 0 108 40" fill="none" xmlns="http://www.w3.org/2000/svg">
<path d="M0 8C0 3.58172 3.58172 0 8 0H100C104.418 0 108 3.58172 108 8V32C108 36.4183 104.418 40 100 40H8C3.58172 40 0 36.4183 0 32V8Z" fill="#282B30"/>
<path fill-rule="evenodd" clip-rule="evenodd" d="M19.52 32C14.0894 32 11.3741 32 9.68707 30.3129C8 28.6259 8 25.9105 8 20.4799L8 19.5199C8 14.0893 8 11.374 9.68706 9.68697C11.3741 8 14.0894 8 19.52 8L19.52 8L20.48 8L20.48 8C25.9106 8 28.6259 8 30.3129 9.68697C32 11.374 32 14.0893 32 19.5199L32 20.4799C32 25.9105 32 28.6259 30.3129 30.3129C28.6259 32 25.9106 32 20.48 32L19.52 32Z" fill="#2994FF"/>
<path d="M21.8782 22.7904C21.2316 22.6289 20.7782 22.0504 20.7782 21.387L20.7782 13.5712C20.7782 12.8177 21.4902 12.2651 22.2247 12.4486L26.8758 13.6104C27.5224 13.7719 27.9758 14.3504 27.9758 15.0138L27.9758 22.8296C27.9758 23.5831 27.2638 24.1357 26.5293 23.9523L21.8782 22.7904Z" fill="white"/>
<path d="M13.1241 26.3895C12.4774 26.2279 12.024 25.6495 12.024 24.9861L12.024 17.1703C12.024 16.4168 12.7361 15.8641 13.4705 16.0476L18.1216 17.2095C18.7683 17.371 19.2217 17.9494 19.2217 18.6128L19.2217 26.4286C19.2217 27.1822 18.5096 27.7348 17.7752 27.5513L13.1241 26.3895Z" fill="white"/>
<path d="M17.5012 24.59C16.8546 24.4284 16.4012 23.85 16.4012 23.1866L16.4012 15.3708C16.4012 14.6173 17.1132 14.0646 17.8477 14.2481L22.4988 15.41C23.1454 15.5715 23.5988 16.1499 23.5988 16.8133L23.5988 24.6291C23.5988 25.3827 22.8868 25.9353 22.1523 25.7518L17.5012 24.59Z" fill="white"/>
<path d="M20.5453 25.3525C20.3417 25.3006 20.1967 25.1205 20.1896 24.9104L19.9872 18.9416C19.9287 18.1516 19.3423 17.5233 18.7295 17.3383C18.6951 17.3279 18.6584 17.3419 18.638 17.3715C18.6173 17.4016 18.6253 17.4432 18.6542 17.4656C18.8055 17.5827 19.222 17.965 19.222 18.6243L19.2207 25.0168L20.5453 25.3525Z" fill="#2994FF"/>
<path d="M24.9234 23.5514C24.7199 23.5005 24.5747 23.3209 24.5676 23.1113L24.3652 17.1428C24.3067 16.3528 23.7203 15.7245 23.1075 15.5395C23.0731 15.5291 23.0363 15.5431 23.016 15.5727C22.9953 15.6028 23.0033 15.6444 23.0321 15.6668C23.1835 15.7839 23.6 16.1662 23.6 16.8256L23.5987 23.2202L24.9234 23.5514Z" fill="#2994FF"/>
<path d="M46.8355 10H45.9548C45.9027 9.74669 45.8116 9.52415 45.6814 9.33239C45.5535 9.14062 45.3973 8.97964 45.2126 8.84943C45.0303 8.71686 44.8279 8.61742 44.6054 8.55114C44.3828 8.48485 44.1508 8.4517 43.9094 8.4517C43.469 8.4517 43.0701 8.56297 42.7126 8.78551C42.3575 9.00805 42.0746 9.33594 41.8639 9.76918C41.6556 10.2024 41.5514 10.7339 41.5514 11.3636C41.5514 11.9934 41.6556 12.5249 41.8639 12.9581C42.0746 13.3913 42.3575 13.7192 42.7126 13.9418C43.0701 14.1643 43.469 14.2756 43.9094 14.2756C44.1508 14.2756 44.3828 14.2424 44.6054 14.1761C44.8279 14.1098 45.0303 14.0116 45.2126 13.8814C45.3973 13.7488 45.5535 13.5866 45.6814 13.3949C45.8116 13.2008 45.9027 12.9782 45.9548 12.7273H46.8355C46.7692 13.099 46.6485 13.4316 46.4733 13.7251C46.2981 14.0187 46.0803 14.2685 45.8199 14.4744C45.5595 14.678 45.2671 14.8331 44.9427 14.9396C44.6208 15.0462 44.2763 15.0994 43.9094 15.0994C43.2891 15.0994 42.7375 14.9479 42.2545 14.6449C41.7716 14.3419 41.3916 13.911 41.1146 13.3523C40.8376 12.7936 40.6991 12.1307 40.6991 11.3636C40.6991 10.5966 40.8376 9.93371 41.1146 9.375C41.3916 8.81629 41.7716 8.38542 42.2545 8.08239C42.7375 7.77936 43.2891 7.62784 43.9094 7.62784C44.2763 7.62784 44.6208 7.68111 44.9427 7.78764C45.2671 7.89418 45.5595 8.05043 45.8199 8.25639C46.0803 8.45999 46.2981 8.70857 46.4733 9.00213C46.6485 9.29332 46.7692 9.62595 46.8355 10ZM48.145 15V9.54545H48.983V11.9176H49.537L51.4972 9.54545H52.5768L50.3751 12.1733L52.6052 15H51.5257L49.7359 12.6989H48.983V15H48.145ZM55.1212 15.1278C54.7755 15.1278 54.4619 15.0627 54.1801 14.9325C53.8984 14.8 53.6747 14.6094 53.509 14.3608C53.3432 14.1098 53.2604 13.8068 53.2604 13.4517C53.2604 13.1392 53.3219 12.8859 53.445 12.6918C53.5682 12.4953 53.7327 12.3414 53.9387 12.2301C54.1446 12.1188 54.3719 12.036 54.6205 11.9815C54.8714 11.9247 55.1235 11.8797 55.3769 11.8466C55.7083 11.804 55.977 11.772 56.183 11.7507C56.3913 11.727 56.5428 11.688 56.6375 11.6335C56.7346 11.5791 56.7831 11.4844 56.7831 11.3494V11.321C56.7831 10.9706 56.6872 10.6984 56.4955 10.5043C56.3061 10.3101 56.0184 10.2131 55.6325 10.2131C55.2325 10.2131 54.9188 10.3007 54.6915 10.4759C54.4642 10.651 54.3044 10.8381 54.2121 11.0369L53.4166 10.7528C53.5587 10.4214 53.7481 10.1634 53.9848 9.97869C54.2239 9.79167 54.4843 9.66146 54.7661 9.58807C55.0502 9.51231 55.3295 9.47443 55.6041 9.47443C55.7793 9.47443 55.9806 9.49574 56.2078 9.53835C56.4375 9.5786 56.6588 9.66264 56.8719 9.79048C57.0873 9.91832 57.2661 10.1113 57.4081 10.3693C57.5502 10.6274 57.6212 10.973 57.6212 11.4062V15H56.7831V14.2614H56.7405C56.6837 14.3797 56.589 14.5064 56.4564 14.6413C56.3238 14.7763 56.1475 14.8911 55.9273 14.9858C55.7071 15.0805 55.4384 15.1278 55.1212 15.1278ZM55.249 14.375C55.5805 14.375 55.8598 14.3099 56.0871 14.1797C56.3167 14.0495 56.4896 13.8814 56.6056 13.6754C56.7239 13.4695 56.7831 13.2528 56.7831 13.0256V12.2585C56.7476 12.3011 56.6695 12.3402 56.5487 12.3757C56.4304 12.4089 56.2931 12.4384 56.1368 12.4645C55.9829 12.4882 55.8326 12.5095 55.6858 12.5284C55.5414 12.545 55.4242 12.5592 55.3343 12.571C55.1164 12.5994 54.9128 12.6456 54.7235 12.7095C54.5364 12.7711 54.3849 12.8646 54.2689 12.9901C54.1553 13.1132 54.0985 13.2812 54.0985 13.4943C54.0985 13.7855 54.2062 14.0057 54.4216 14.1548C54.6394 14.3016 54.9152 14.375 55.249 14.375ZM63.3554 9.54545V15H62.5173V9.54545H63.3554ZM63.0287 12.1449V12.9261C62.8393 12.9972 62.6511 13.0599 62.464 13.1143C62.277 13.1664 62.0805 13.2079 61.8746 13.2386C61.6686 13.267 61.4425 13.2812 61.1963 13.2812C60.5784 13.2812 60.0824 13.1143 59.7084 12.7805C59.3367 12.4467 59.1508 11.946 59.1508 11.2784V9.53125H59.9889V11.2784C59.9889 11.5578 60.0422 11.7874 60.1487 11.9673C60.2552 12.1473 60.3997 12.281 60.5819 12.3686C60.7642 12.4562 60.969 12.5 61.1963 12.5C61.5514 12.5 61.8722 12.468 62.1586 12.4041C62.4475 12.3378 62.7375 12.2514 63.0287 12.1449ZM66.4981 15.1278C66.1525 15.1278 65.8388 15.0627 65.5571 14.9325C65.2754 14.8 65.0516 14.6094 64.8859 14.3608C64.7202 14.1098 64.6373 13.8068 64.6373 13.4517C64.6373 13.1392 64.6989 12.8859 64.822 12.6918C64.9451 12.4953 65.1096 12.3414 65.3156 12.2301C65.5216 12.1188 65.7488 12.036 65.9974 11.9815C66.2484 11.9247 66.5005 11.8797 66.7538 11.8466C67.0853 11.804 67.354 11.772 67.5599 11.7507C67.7683 11.727 67.9198 11.688 68.0145 11.6335C68.1115 11.5791 68.1601 11.4844 68.1601 11.3494V11.321C68.1601 10.9706 68.0642 10.6984 67.8724 10.5043C67.683 10.3101 67.3954 10.2131 67.0095 10.2131C66.6094 10.2131 66.2957 10.3007 66.0684 10.4759C65.8412 10.651 65.6814 10.8381 65.589 11.0369L64.7936 10.7528C64.9356 10.4214 65.125 10.1634 65.3618 9.97869C65.6009 9.79167 65.8613 9.66146 66.143 9.58807C66.4271 9.51231 66.7065 9.47443 66.9811 9.47443C67.1563 9.47443 67.3575 9.49574 67.5848 9.53835C67.8144 9.5786 68.0358 9.66264 68.2488 9.79048C68.4643 9.91832 68.643 10.1113 68.7851 10.3693C68.9271 10.6274 68.9981 10.973 68.9981 11.4062V15H68.1601V14.2614H68.1175C68.0606 14.3797 67.9659 14.5064 67.8334 14.6413C67.7008 14.7763 67.5244 14.8911 67.3042 14.9858C67.0841 15.0805 66.8154 15.1278 66.4981 15.1278ZM66.626 14.375C66.9574 14.375 67.2368 14.3099 67.464 14.1797C67.6937 14.0495 67.8665 13.8814 67.9825 13.6754C68.1009 13.4695 68.1601 13.2528 68.1601 13.0256V12.2585C68.1246 12.3011 68.0464 12.3402 67.9257 12.3757C67.8073 12.4089 67.67 12.4384 67.5138 12.4645C67.3599 12.4882 67.2095 12.5095 67.0628 12.5284C66.9184 12.545 66.8012 12.5592 66.7112 12.571C66.4934 12.5994 66.2898 12.6456 66.1004 12.7095C65.9134 12.7711 65.7619 12.8646 65.6459 12.9901C65.5322 13.1132 65.4754 13.2812 65.4754 13.4943C65.4754 13.7855 65.5831 14.0057 65.7986 14.1548C66.0164 14.3016 66.2922 14.375 66.626 14.375ZM71.3659 13.7642L73.9937 9.54545H74.9596V15H74.1215V10.7812L71.5079 15H70.5278V9.54545H71.3659V13.7642ZM73.4397 7.72727H74.221C74.221 8.1108 74.0884 8.42448 73.8232 8.66832C73.5581 8.91217 73.1982 9.03409 72.7437 9.03409C72.2963 9.03409 71.94 8.91217 71.6748 8.66832C71.412 8.42448 71.2806 8.1108 71.2806 7.72727H72.0619C72.0619 7.91193 72.1128 8.0741 72.2146 8.21378C72.3187 8.35346 72.4951 8.4233 72.7437 8.4233C72.9923 8.4233 73.1698 8.35346 73.2764 8.21378C73.3853 8.0741 73.4397 7.91193 73.4397 7.72727ZM75.7524 10.3267V9.54545H80.1842V10.3267H78.3944V15H77.5564V10.3267H75.7524ZM83.4104 15.1136C82.8849 15.1136 82.4315 14.9976 82.0503 14.7656C81.6715 14.5312 81.3792 14.2045 81.1732 13.7855C80.9696 13.3641 80.8678 12.8741 80.8678 12.3153C80.8678 11.7566 80.9696 11.2642 81.1732 10.8381C81.3792 10.4096 81.6656 10.0758 82.0326 9.83665C82.4019 9.59517 82.8328 9.47443 83.3252 9.47443C83.6093 9.47443 83.8898 9.52178 84.1668 9.61648C84.4438 9.71117 84.6959 9.86506 84.9232 10.0781C85.1505 10.2888 85.3316 10.5682 85.4665 10.9162C85.6015 11.2642 85.6689 11.6927 85.6689 12.2017V12.5568H81.4644V11.8324H84.8167C84.8167 11.5246 84.7551 11.25 84.632 11.0085C84.5113 10.767 84.3385 10.5765 84.1135 10.4368C83.891 10.2971 83.6282 10.2273 83.3252 10.2273C82.9914 10.2273 82.7026 10.3101 82.4587 10.4759C82.2172 10.6392 82.0314 10.8523 81.9012 11.1151C81.771 11.3778 81.7059 11.6596 81.7059 11.9602V12.4432C81.7059 12.8551 81.7769 13.2043 81.9189 13.4908C82.0634 13.7749 82.2634 13.9915 82.5191 14.1406C82.7748 14.2874 83.0719 14.3608 83.4104 14.3608C83.6306 14.3608 83.8295 14.33 84.007 14.2685C84.1869 14.2045 84.342 14.1098 84.4722 13.9844C84.6024 13.8565 84.703 13.6979 84.7741 13.5085L85.5837 13.7358C85.4985 14.0104 85.3553 14.2519 85.154 14.4602C84.9528 14.6662 84.7042 14.8272 84.4083 14.9432C84.1124 15.0568 83.7797 15.1136 83.4104 15.1136ZM90.5944 13.7642L93.2222 9.54545H94.1881V15H93.3501V10.7812L90.7364 15H89.7563V9.54545H90.5944V13.7642ZM95.3822 13.608H96.2771C96.296 13.8542 96.4073 14.0412 96.6109 14.169C96.8169 14.2969 97.0844 14.3608 97.4134 14.3608C97.7496 14.3608 98.0373 14.2921 98.2764 14.1548C98.5155 14.0152 98.635 13.7902 98.635 13.4801C98.635 13.2978 98.5901 13.1392 98.5001 13.0043C98.4101 12.867 98.2835 12.7604 98.1201 12.6847C97.9568 12.6089 97.7638 12.571 97.5413 12.571H96.6038V11.8182H97.5413C97.8751 11.8182 98.1213 11.7424 98.2799 11.5909C98.4409 11.4394 98.5214 11.25 98.5214 11.0227C98.5214 10.7789 98.435 10.5836 98.2622 10.4368C98.0893 10.2876 97.8443 10.2131 97.5271 10.2131C97.2075 10.2131 96.9411 10.2853 96.7281 10.4297C96.515 10.5717 96.4026 10.7552 96.3907 10.9801H95.51C95.5195 10.6866 95.6095 10.4273 95.7799 10.2024C95.9504 9.97514 96.1824 9.79759 96.4759 9.66974C96.7695 9.53954 97.1057 9.47443 97.4845 9.47443C97.868 9.47443 98.2006 9.5419 98.4823 9.67685C98.7664 9.80942 98.9854 9.99053 99.1393 10.2202C99.2955 10.4474 99.3737 10.7055 99.3737 10.9943C99.3737 11.3021 99.2873 11.5507 99.1144 11.7401C98.9416 11.9295 98.725 12.0644 98.4646 12.1449V12.2017C98.6705 12.2159 98.8493 12.2822 99.0008 12.4006C99.1547 12.5166 99.2742 12.6693 99.3595 12.8587C99.4447 13.0457 99.4873 13.2528 99.4873 13.4801C99.4873 13.8116 99.3985 14.1004 99.221 14.3466C99.0434 14.5904 98.7996 14.7798 98.4894 14.9148C98.1793 15.0473 97.8254 15.1136 97.4276 15.1136C97.0418 15.1136 96.6961 15.0509 96.3907 14.9254C96.0853 14.7976 95.8427 14.6212 95.6627 14.3963C95.4852 14.169 95.3917 13.9062 95.3822 13.608Z" fill="white"/>
<path d="M48.7154 31H47.0214L44.3334 27.248H42.9194V31H41.4774V21.13H44.9494C45.6214 21.13 46.2234 21.2607 46.7554 21.522C47.2874 21.7833 47.6981 22.1473 47.9874 22.614C48.2861 23.0713 48.4354 23.5987 48.4354 24.196C48.4354 24.9427 48.2067 25.582 47.7494 26.114C47.2921 26.6367 46.6807 26.982 45.9154 27.15L48.7154 31ZM42.9194 22.46V25.932H44.9494C45.5467 25.932 46.0274 25.7733 46.3914 25.456C46.7647 25.1293 46.9514 24.7093 46.9514 24.196C46.9514 23.6827 46.7647 23.2673 46.3914 22.95C46.0274 22.6233 45.5467 22.46 44.9494 22.46H42.9194ZM52.6784 31.14C52.1651 31.14 51.7031 31.014 51.2924 30.762C50.8817 30.5007 50.5597 30.146 50.3264 29.698C50.0931 29.2407 49.9764 28.7273 49.9764 28.158V23.762H51.3484V28.046C51.3484 28.5967 51.5024 29.0447 51.8104 29.39C52.1184 29.7353 52.5151 29.908 53.0004 29.908C53.5044 29.908 53.9244 29.7307 54.2604 29.376C54.5964 29.0213 54.7644 28.578 54.7644 28.046V23.762H56.1364V31H55.1564L54.8344 29.908C54.6011 30.3 54.2931 30.6033 53.9104 30.818C53.5371 31.0327 53.1264 31.14 52.6784 31.14ZM61.2511 31.14C60.3458 31.14 59.5571 30.9067 58.8851 30.44C58.2224 29.964 57.7698 29.32 57.5271 28.508L58.9131 28.284C59.1838 28.8067 59.5058 29.194 59.8791 29.446C60.2524 29.6887 60.7098 29.81 61.2511 29.81C61.8018 29.81 62.2498 29.6887 62.5951 29.446C62.9404 29.194 63.1131 28.8533 63.1131 28.424C63.1131 28.1067 63.0151 27.8407 62.8191 27.626C62.6324 27.4113 62.3944 27.2387 62.1051 27.108C61.8158 26.9773 61.4378 26.8327 60.9711 26.674C60.3458 26.4687 59.8324 26.2633 59.4311 26.058C59.0298 25.8527 58.6891 25.5633 58.4091 25.19C58.1384 24.8073 58.0031 24.322 58.0031 23.734C58.0031 23.1833 58.1384 22.7027 58.4091 22.292C58.6891 21.872 59.0718 21.55 59.5571 21.326C60.0424 21.102 60.5838 20.99 61.1811 20.99C62.0118 20.99 62.7258 21.2093 63.3231 21.648C63.9204 22.0773 64.3451 22.67 64.5971 23.426L63.2391 23.65C63.0524 23.2207 62.7864 22.894 62.4411 22.67C62.0958 22.4367 61.6898 22.32 61.2231 22.32C60.7191 22.32 60.3038 22.4413 59.9771 22.684C59.6504 22.9173 59.4871 23.2393 59.4871 23.65C59.4871 23.958 59.5804 24.2193 59.7671 24.434C59.9631 24.6487 60.2011 24.8213 60.4811 24.952C60.7704 25.0827 61.1531 25.232 61.6291 25.4C62.2358 25.6053 62.7398 25.8153 63.1411 26.03C63.5518 26.2353 63.8971 26.5293 64.1771 26.912C64.4571 27.2947 64.5971 27.7753 64.5971 28.354C64.5971 28.914 64.4478 29.404 64.1491 29.824C63.8598 30.244 63.4584 30.5707 62.9451 30.804C62.4411 31.028 61.8764 31.14 61.2511 31.14ZM70.1191 29.796L69.9931 31H68.7191C67.9631 31 67.3891 30.8133 66.9971 30.44C66.6051 30.0667 66.4091 29.53 66.4091 28.83V24.98H65.1631V23.762H66.4091L66.7871 21.662H67.7811V23.762H69.9931V24.98H67.7811V28.83C67.7811 29.474 68.0938 29.796 68.7191 29.796H70.1191ZM74.4074 31.14C73.67 31.14 73.012 30.9813 72.4334 30.664C71.8547 30.3467 71.402 29.9033 71.0754 29.334C70.7487 28.7647 70.5854 28.116 70.5854 27.388C70.5854 26.66 70.7487 26.0113 71.0754 25.442C71.402 24.8727 71.8547 24.4293 72.4334 24.112C73.012 23.7853 73.67 23.622 74.4074 23.622C75.1447 23.622 75.8027 23.7853 76.3814 24.112C76.96 24.4293 77.4127 24.8727 77.7394 25.442C78.066 26.0113 78.2294 26.66 78.2294 27.388C78.2294 28.116 78.066 28.7647 77.7394 29.334C77.4127 29.9033 76.96 30.3467 76.3814 30.664C75.8027 30.9813 75.1447 31.14 74.4074 31.14ZM74.4074 29.88C75.1167 29.88 75.6907 29.6513 76.1294 29.194C76.5774 28.7367 76.8014 28.1347 76.8014 27.388C76.8014 26.6413 76.5774 26.0393 76.1294 25.582C75.6907 25.1153 75.1167 24.882 74.4074 24.882C73.698 24.882 73.124 25.1153 72.6854 25.582C72.2467 26.0393 72.0274 26.6413 72.0274 27.388C72.0274 28.1253 72.2467 28.7273 72.6854 29.194C73.124 29.6513 73.698 29.88 74.4074 29.88ZM79.7007 31V23.762H80.6947L80.9887 24.798C81.2034 24.434 81.4694 24.1727 81.7867 24.014C82.104 23.846 82.482 23.762 82.9207 23.762H83.2567L83.3687 25.078H82.5847C82.0807 25.078 81.7027 25.2227 81.4507 25.512C81.1987 25.8013 81.0727 26.1933 81.0727 26.688V31H79.7007ZM91.2124 27.332C91.2124 27.5187 91.2077 27.6633 91.1984 27.766H85.2204C85.2951 28.41 85.5471 28.9233 85.9764 29.306C86.4057 29.6887 86.9517 29.88 87.6144 29.88C88.0717 29.88 88.4777 29.7913 88.8324 29.614C89.1964 29.4273 89.4717 29.1847 89.6584 28.886L90.9464 29.096C90.6664 29.7493 90.2137 30.2533 89.5884 30.608C88.9724 30.9627 88.2864 31.14 87.5304 31.14C86.8117 31.14 86.1677 30.9813 85.5984 30.664C85.0291 30.3373 84.5857 29.8893 84.2684 29.32C83.9511 28.7507 83.7924 28.1067 83.7924 27.388C83.7924 26.66 83.9511 26.0113 84.2684 25.442C84.5857 24.8727 85.0244 24.4293 85.5844 24.112C86.1444 23.7853 86.7837 23.622 87.5024 23.622C88.2117 23.622 88.8464 23.7853 89.4064 24.112C89.9757 24.4293 90.4191 24.8727 90.7364 25.442C91.0537 26.002 91.2124 26.632 91.2124 27.332ZM87.5024 24.84C86.9517 24.84 86.4757 25.0033 86.0744 25.33C85.6824 25.6567 85.4211 26.0953 85.2904 26.646H89.7144C89.5931 26.1047 89.3317 25.6707 88.9304 25.344C88.5384 25.008 88.0624 24.84 87.5024 24.84Z" fill="white"/>
</svg>
