<svg width="108" height="40" viewBox="0 0 108 40" fill="none" xmlns="http://www.w3.org/2000/svg">
<g clip-path="url(#clip0_14_23)">
<path d="M0 8C0 3.58172 3.58172 0 8 0H100C104.418 0 108 3.58172 108 8V32C108 36.4183 104.418 40 100 40H8C3.58172 40 0 36.4183 0 32V8Z" fill="#282B30"/>
<path fill-rule="evenodd" clip-rule="evenodd" d="M20.52 32C15.0894 32 12.3741 32 10.6871 30.3129C9 28.6259 9 25.9105 9 20.4799V19.5199C9 14.0893 9 11.374 10.6871 9.68697C12.3741 8 15.0894 8 20.52 8H21.48C26.9106 8 29.6259 8 31.3129 9.68697C33 11.374 33 14.0893 33 19.5199V20.4799C33 25.9105 33 28.6259 31.3129 30.3129C29.6259 32 26.9106 32 21.48 32H20.52Z" fill="#2994FF"/>
<path d="M21.8783 22.7904C21.2317 22.6289 20.7783 22.0504 20.7783 21.387V13.5712C20.7783 12.8177 21.4903 12.2651 22.2248 12.4486L26.8759 13.6104C27.5225 13.7719 27.9759 14.3504 27.9759 15.0138V22.8296C27.9759 23.5831 27.2639 24.1357 26.5294 23.9523L21.8783 22.7904Z" fill="white"/>
<path d="M13.124 26.3895C12.4773 26.2279 12.0239 25.6495 12.0239 24.9861V17.1703C12.0239 16.4168 12.736 15.8641 13.4704 16.0476L18.1215 17.2095C18.7682 17.371 19.2216 17.9494 19.2216 18.6128V26.4286C19.2216 27.1822 18.5095 27.7348 17.7751 27.5513L13.124 26.3895Z" fill="white"/>
<path d="M17.5014 24.59C16.8548 24.4284 16.4014 23.85 16.4014 23.1866V15.3708C16.4014 14.6173 17.1134 14.0646 17.8479 14.2481L22.499 15.41C23.1456 15.5715 23.599 16.1499 23.599 16.8133V24.6291C23.599 25.3827 22.887 25.9353 22.1525 25.7518L17.5014 24.59Z" fill="white"/>
<path d="M20.5454 25.3525C20.3418 25.3006 20.1968 25.1205 20.1897 24.9104L19.9873 18.9416C19.9288 18.1516 19.3424 17.5233 18.7296 17.3383C18.6952 17.3279 18.6585 17.3419 18.6381 17.3715C18.6174 17.4016 18.6254 17.4432 18.6543 17.4656C18.8056 17.5827 19.2221 17.965 19.2221 18.6243L19.2208 25.0168L20.5454 25.3525Z" fill="#2994FF"/>
<path d="M24.9234 23.5514C24.7199 23.5005 24.5747 23.3209 24.5676 23.1113L24.3652 17.1428C24.3067 16.3528 23.7203 15.7245 23.1075 15.5395C23.0731 15.5291 23.0363 15.5431 23.016 15.5727C22.9953 15.6028 23.0033 15.6444 23.0321 15.6668C23.1835 15.7839 23.6 16.1662 23.6 16.8256L23.5987 23.2202L24.9234 23.5514Z" fill="#2994FF"/>
<path d="M46.8356 10H45.9549C45.9028 9.74672 45.8117 9.52418 45.6815 9.33242C45.5536 9.14065 45.3974 8.97967 45.2127 8.84946C45.0304 8.71689 44.828 8.61745 44.6055 8.55117C44.3829 8.48488 44.1509 8.45173 43.9095 8.45173C43.4691 8.45173 43.0702 8.563 42.7127 8.78554C42.3576 9.00808 42.0747 9.33597 41.864 9.76921C41.6557 10.2024 41.5515 10.7339 41.5515 11.3636C41.5515 11.9934 41.6557 12.5249 41.864 12.9581C42.0747 13.3913 42.3576 13.7192 42.7127 13.9418C43.0702 14.1643 43.4691 14.2756 43.9095 14.2756C44.1509 14.2756 44.3829 14.2424 44.6055 14.1761C44.828 14.1098 45.0304 14.0116 45.2127 13.8814C45.3974 13.7488 45.5536 13.5866 45.6815 13.3949C45.8117 13.2008 45.9028 12.9782 45.9549 12.7273H46.8356C46.7693 13.099 46.6486 13.4316 46.4734 13.7251C46.2982 14.0187 46.0804 14.2685 45.82 14.4744C45.5596 14.678 45.2672 14.8331 44.9428 14.9396C44.6209 15.0462 44.2764 15.0994 43.9095 15.0994C43.2892 15.0994 42.7376 14.9479 42.2546 14.6449C41.7717 14.3419 41.3917 13.911 41.1147 13.3523C40.8377 12.7936 40.6992 12.1307 40.6992 11.3636C40.6992 10.5966 40.8377 9.93374 41.1147 9.37503C41.3917 8.81632 41.7717 8.38545 42.2546 8.08242C42.7376 7.77939 43.2892 7.62787 43.9095 7.62787C44.2764 7.62787 44.6209 7.68114 44.9428 7.78767C45.2672 7.89421 45.5596 8.05046 45.82 8.25642C46.0804 8.46002 46.2982 8.7086 46.4734 9.00216C46.6486 9.29335 46.7693 9.62598 46.8356 10ZM48.1451 15V9.54548H48.9831V11.9176H49.5371L51.4973 9.54548H52.5769L50.3752 12.1733L52.6053 15H51.5258L49.736 12.6989H48.9831V15H48.1451ZM55.1213 15.1278C54.7756 15.1278 54.462 15.0627 54.1802 14.9325C53.8985 14.8 53.6748 14.6094 53.5091 14.3608C53.3433 14.1098 53.2605 13.8068 53.2605 13.4517C53.2605 13.1392 53.322 12.8859 53.4451 12.6918C53.5683 12.4953 53.7328 12.3414 53.9388 12.2301C54.1447 12.1188 54.372 12.036 54.6206 11.9815C54.8715 11.9247 55.1236 11.8797 55.377 11.8466C55.7084 11.804 55.9771 11.772 56.1831 11.7507C56.3914 11.727 56.5429 11.688 56.6376 11.6335C56.7347 11.5791 56.7832 11.4844 56.7832 11.3494V11.321C56.7832 10.9706 56.6873 10.6984 56.4956 10.5043C56.3062 10.3101 56.0185 10.2131 55.6326 10.2131C55.2326 10.2131 54.9189 10.3007 54.6916 10.4759C54.4643 10.651 54.3045 10.8381 54.2122 11.0369L53.4167 10.7528C53.5588 10.4214 53.7482 10.1634 53.9849 9.97872C54.224 9.7917 54.4844 9.66149 54.7662 9.5881C55.0503 9.51234 55.3296 9.47446 55.6042 9.47446C55.7794 9.47446 55.9807 9.49577 56.2079 9.53838C56.4376 9.57863 56.6589 9.66267 56.872 9.79051C57.0874 9.91835 57.2662 10.1113 57.4082 10.3693C57.5503 10.6274 57.6213 10.973 57.6213 11.4062V15H56.7832V14.2614H56.7406C56.6838 14.3797 56.5891 14.5064 56.4565 14.6413C56.3239 14.7763 56.1476 14.8911 55.9274 14.9858C55.7072 15.0805 55.4385 15.1278 55.1213 15.1278ZM55.2491 14.375C55.5806 14.375 55.8599 14.3099 56.0872 14.1797C56.3168 14.0495 56.4897 13.8814 56.6057 13.6754C56.724 13.4695 56.7832 13.2528 56.7832 13.0256V12.2585C56.7477 12.3011 56.6696 12.3402 56.5488 12.3757C56.4305 12.4089 56.2932 12.4384 56.1369 12.4645C55.983 12.4882 55.8327 12.5095 55.6859 12.5284C55.5415 12.545 55.4243 12.5592 55.3344 12.571C55.1165 12.5994 54.9129 12.6456 54.7236 12.7095C54.5365 12.7711 54.385 12.8646 54.269 12.9901C54.1554 13.1132 54.0986 13.2812 54.0986 13.4943C54.0986 13.7855 54.2063 14.0057 54.4217 14.1548C54.6395 14.3016 54.9153 14.375 55.2491 14.375ZM63.3555 9.54548V15H62.5174V9.54548H63.3555ZM63.0288 12.1449V12.9261C62.8394 12.9972 62.6512 13.0599 62.4641 13.1143C62.2771 13.1664 62.0806 13.2079 61.8747 13.2386C61.6687 13.267 61.4426 13.2812 61.1964 13.2812C60.5785 13.2812 60.0825 13.1143 59.7085 12.7805C59.3368 12.4467 59.1509 11.946 59.1509 11.2784V9.53128H59.989V11.2784C59.989 11.5578 60.0423 11.7874 60.1488 11.9673C60.2553 12.1473 60.3998 12.281 60.582 12.3686C60.7643 12.4562 60.9691 12.5 61.1964 12.5C61.5515 12.5 61.8723 12.468 62.1587 12.4041C62.4476 12.3378 62.7376 12.2514 63.0288 12.1449ZM66.4982 15.1278C66.1526 15.1278 65.8389 15.0627 65.5572 14.9325C65.2755 14.8 65.0517 14.6094 64.886 14.3608C64.7203 14.1098 64.6374 13.8068 64.6374 13.4517C64.6374 13.1392 64.699 12.8859 64.8221 12.6918C64.9452 12.4953 65.1097 12.3414 65.3157 12.2301C65.5217 12.1188 65.7489 12.036 65.9975 11.9815C66.2485 11.9247 66.5006 11.8797 66.7539 11.8466C67.0854 11.804 67.3541 11.772 67.56 11.7507C67.7684 11.727 67.9199 11.688 68.0146 11.6335C68.1116 11.5791 68.1602 11.4844 68.1602 11.3494V11.321C68.1602 10.9706 68.0643 10.6984 67.8725 10.5043C67.6831 10.3101 67.3955 10.2131 67.0096 10.2131C66.6095 10.2131 66.2958 10.3007 66.0685 10.4759C65.8413 10.651 65.6815 10.8381 65.5891 11.0369L64.7937 10.7528C64.9357 10.4214 65.1251 10.1634 65.3619 9.97872C65.601 9.7917 65.8614 9.66149 66.1431 9.5881C66.4272 9.51234 66.7066 9.47446 66.9812 9.47446C67.1564 9.47446 67.3576 9.49577 67.5849 9.53838C67.8145 9.57863 68.0359 9.66267 68.2489 9.79051C68.4644 9.91835 68.6431 10.1113 68.7852 10.3693C68.9272 10.6274 68.9982 10.973 68.9982 11.4062V15H68.1602V14.2614H68.1176C68.0607 14.3797 67.966 14.5064 67.8335 14.6413C67.7009 14.7763 67.5245 14.8911 67.3043 14.9858C67.0842 15.0805 66.8155 15.1278 66.4982 15.1278ZM66.6261 14.375C66.9575 14.375 67.2369 14.3099 67.4641 14.1797C67.6938 14.0495 67.8666 13.8814 67.9826 13.6754C68.101 13.4695 68.1602 13.2528 68.1602 13.0256V12.2585C68.1247 12.3011 68.0465 12.3402 67.9258 12.3757C67.8074 12.4089 67.6701 12.4384 67.5139 12.4645C67.36 12.4882 67.2096 12.5095 67.0629 12.5284C66.9185 12.545 66.8013 12.5592 66.7113 12.571C66.4935 12.5994 66.2899 12.6456 66.1005 12.7095C65.9135 12.7711 65.762 12.8646 65.646 12.9901C65.5323 13.1132 65.4755 13.2812 65.4755 13.4943C65.4755 13.7855 65.5832 14.0057 65.7987 14.1548C66.0165 14.3016 66.2923 14.375 66.6261 14.375ZM71.366 13.7642L73.9938 9.54548H74.9597V15H74.1216V10.7812L71.508 15H70.5279V9.54548H71.366V13.7642ZM73.4398 7.7273H74.2211C74.2211 8.11083 74.0885 8.42451 73.8233 8.66835C73.5582 8.9122 73.1983 9.03412 72.7438 9.03412C72.2964 9.03412 71.9401 8.9122 71.6749 8.66835C71.4121 8.42451 71.2807 8.11083 71.2807 7.7273H72.062C72.062 7.91196 72.1129 8.07413 72.2147 8.21381C72.3188 8.35349 72.4952 8.42333 72.7438 8.42333C72.9924 8.42333 73.1699 8.35349 73.2765 8.21381C73.3854 8.07413 73.4398 7.91196 73.4398 7.7273ZM75.7525 10.3267V9.54548H80.1843V10.3267H78.3945V15H77.5565V10.3267H75.7525ZM83.4105 15.1136C82.885 15.1136 82.4316 14.9976 82.0504 14.7656C81.6716 14.5312 81.3793 14.2045 81.1733 13.7855C80.9697 13.3641 80.8679 12.8741 80.8679 12.3153C80.8679 11.7566 80.9697 11.2642 81.1733 10.8381C81.3793 10.4096 81.6657 10.0758 82.0327 9.83668C82.402 9.5952 82.8329 9.47446 83.3253 9.47446C83.6094 9.47446 83.8899 9.52181 84.1669 9.61651C84.4439 9.7112 84.696 9.86509 84.9233 10.0781C85.1506 10.2888 85.3317 10.5682 85.4666 10.9162C85.6016 11.2642 85.669 11.6927 85.669 12.2017V12.5568H81.4645V11.8324H84.8168C84.8168 11.5246 84.7552 11.25 84.6321 11.0085C84.5114 10.767 84.3386 10.5765 84.1136 10.4368C83.8911 10.2971 83.6283 10.2273 83.3253 10.2273C82.9915 10.2273 82.7027 10.3101 82.4588 10.4759C82.2173 10.6392 82.0315 10.8523 81.9013 11.1151C81.7711 11.3778 81.706 11.6596 81.706 11.9602V12.4432C81.706 12.8551 81.777 13.2043 81.919 13.4908C82.0635 13.7749 82.2635 13.9915 82.5192 14.1406C82.7749 14.2874 83.072 14.3608 83.4105 14.3608C83.6307 14.3608 83.8296 14.33 84.0071 14.2685C84.187 14.2045 84.3421 14.1098 84.4723 13.9844C84.6025 13.8565 84.7031 13.6979 84.7742 13.5085L85.5838 13.7358C85.4986 14.0104 85.3554 14.2519 85.1541 14.4602C84.9529 14.6662 84.7043 14.8272 84.4084 14.9432C84.1125 15.0568 83.7798 15.1136 83.4105 15.1136ZM90.5945 13.7642L93.2223 9.54548H94.1882V15H93.3502V10.7812L90.7365 15H89.7564V9.54548H90.5945V13.7642ZM95.3823 13.608H96.2772C96.2961 13.8542 96.4074 14.0412 96.611 14.169C96.817 14.2969 97.0845 14.3608 97.4135 14.3608C97.7497 14.3608 98.0374 14.2921 98.2765 14.1548C98.5156 14.0152 98.6351 13.7902 98.6351 13.4801C98.6351 13.2978 98.5902 13.1392 98.5002 13.0043C98.4102 12.867 98.2836 12.7604 98.1202 12.6847C97.9569 12.6089 97.7639 12.571 97.5414 12.571H96.6039V11.8182H97.5414C97.8752 11.8182 98.1214 11.7424 98.28 11.5909C98.441 11.4394 98.5215 11.25 98.5215 11.0227C98.5215 10.7789 98.4351 10.5836 98.2623 10.4368C98.0894 10.2876 97.8444 10.2131 97.5272 10.2131C97.2076 10.2131 96.9412 10.2853 96.7282 10.4297C96.5151 10.5717 96.4027 10.7552 96.3908 10.9801H95.5101C95.5196 10.6866 95.6096 10.4273 95.78 10.2024C95.9505 9.97517 96.1825 9.79762 96.476 9.66977C96.7696 9.53957 97.1058 9.47446 97.4846 9.47446C97.8681 9.47446 98.2007 9.54193 98.4824 9.67688C98.7665 9.80945 98.9855 9.99056 99.1394 10.2202C99.2956 10.4474 99.3738 10.7055 99.3738 10.9943C99.3738 11.3021 99.2874 11.5507 99.1145 11.7401C98.9417 11.9295 98.7251 12.0644 98.4647 12.1449V12.2017C98.6706 12.2159 98.8494 12.2822 99.0009 12.4006C99.1548 12.5166 99.2743 12.6693 99.3596 12.8587C99.4448 13.0457 99.4874 13.2528 99.4874 13.4801C99.4874 13.8116 99.3986 14.1004 99.2211 14.3466C99.0435 14.5904 98.7997 14.7798 98.4895 14.9148C98.1794 15.0473 97.8255 15.1136 97.4277 15.1136C97.0419 15.1136 96.6962 15.0509 96.3908 14.9254C96.0854 14.7976 95.8428 14.6212 95.6628 14.3963C95.4853 14.169 95.3918 13.9062 95.3823 13.608Z" fill="white"/>
<path d="M48.7155 31H47.0215L44.3335 27.248H42.9195V31H41.4775V21.13H44.9495C45.6215 21.13 46.2235 21.2607 46.7555 21.522C47.2875 21.7833 47.6982 22.1473 47.9875 22.614C48.2862 23.0713 48.4355 23.5987 48.4355 24.196C48.4355 24.9427 48.2068 25.582 47.7495 26.114C47.2922 26.6367 46.6808 26.982 45.9155 27.15L48.7155 31ZM42.9195 22.46V25.932H44.9495C45.5468 25.932 46.0275 25.7733 46.3915 25.456C46.7648 25.1293 46.9515 24.7093 46.9515 24.196C46.9515 23.6827 46.7648 23.2673 46.3915 22.95C46.0275 22.6233 45.5468 22.46 44.9495 22.46H42.9195ZM52.6785 31.14C52.1652 31.14 51.7032 31.014 51.2925 30.762C50.8818 30.5007 50.5598 30.146 50.3265 29.698C50.0932 29.2407 49.9765 28.7273 49.9765 28.158V23.762H51.3485V28.046C51.3485 28.5967 51.5025 29.0447 51.8105 29.39C52.1185 29.7353 52.5152 29.908 53.0005 29.908C53.5045 29.908 53.9245 29.7307 54.2605 29.376C54.5965 29.0213 54.7645 28.578 54.7645 28.046V23.762H56.1365V31H55.1565L54.8345 29.908C54.6012 30.3 54.2932 30.6033 53.9105 30.818C53.5372 31.0327 53.1265 31.14 52.6785 31.14ZM61.2512 31.14C60.3459 31.14 59.5572 30.9067 58.8852 30.44C58.2225 29.964 57.7699 29.32 57.5272 28.508L58.9132 28.284C59.1839 28.8067 59.5059 29.194 59.8792 29.446C60.2525 29.6887 60.7099 29.81 61.2512 29.81C61.8019 29.81 62.2499 29.6887 62.5952 29.446C62.9405 29.194 63.1132 28.8533 63.1132 28.424C63.1132 28.1067 63.0152 27.8407 62.8192 27.626C62.6325 27.4113 62.3945 27.2387 62.1052 27.108C61.8159 26.9773 61.4379 26.8327 60.9712 26.674C60.3459 26.4687 59.8325 26.2633 59.4312 26.058C59.0299 25.8527 58.6892 25.5633 58.4092 25.19C58.1385 24.8073 58.0032 24.322 58.0032 23.734C58.0032 23.1833 58.1385 22.7027 58.4092 22.292C58.6892 21.872 59.0719 21.55 59.5572 21.326C60.0425 21.102 60.5839 20.99 61.1812 20.99C62.0119 20.99 62.7259 21.2093 63.3232 21.648C63.9205 22.0773 64.3452 22.67 64.5972 23.426L63.2392 23.65C63.0525 23.2207 62.7865 22.894 62.4412 22.67C62.0959 22.4367 61.6899 22.32 61.2232 22.32C60.7192 22.32 60.3039 22.4413 59.9772 22.684C59.6505 22.9173 59.4872 23.2393 59.4872 23.65C59.4872 23.958 59.5805 24.2193 59.7672 24.434C59.9632 24.6487 60.2012 24.8213 60.4812 24.952C60.7705 25.0827 61.1532 25.232 61.6292 25.4C62.2359 25.6053 62.7399 25.8153 63.1412 26.03C63.5519 26.2353 63.8972 26.5293 64.1772 26.912C64.4572 27.2947 64.5972 27.7753 64.5972 28.354C64.5972 28.914 64.4479 29.404 64.1492 29.824C63.8599 30.244 63.4585 30.5707 62.9452 30.804C62.4412 31.028 61.8765 31.14 61.2512 31.14ZM70.1192 29.796L69.9932 31H68.7192C67.9632 31 67.3892 30.8133 66.9972 30.44C66.6052 30.0667 66.4092 29.53 66.4092 28.83V24.98H65.1632V23.762H66.4092L66.7872 21.662H67.7812V23.762H69.9932V24.98H67.7812V28.83C67.7812 29.474 68.0939 29.796 68.7192 29.796H70.1192ZM74.4075 31.14C73.6701 31.14 73.0121 30.9813 72.4335 30.664C71.8548 30.3467 71.4021 29.9033 71.0755 29.334C70.7488 28.7647 70.5855 28.116 70.5855 27.388C70.5855 26.66 70.7488 26.0113 71.0755 25.442C71.4021 24.8727 71.8548 24.4293 72.4335 24.112C73.0121 23.7853 73.6701 23.622 74.4075 23.622C75.1448 23.622 75.8028 23.7853 76.3815 24.112C76.9601 24.4293 77.4128 24.8727 77.7395 25.442C78.0661 26.0113 78.2295 26.66 78.2295 27.388C78.2295 28.116 78.0661 28.7647 77.7395 29.334C77.4128 29.9033 76.9601 30.3467 76.3815 30.664C75.8028 30.9813 75.1448 31.14 74.4075 31.14ZM74.4075 29.88C75.1168 29.88 75.6908 29.6513 76.1295 29.194C76.5775 28.7367 76.8015 28.1347 76.8015 27.388C76.8015 26.6413 76.5775 26.0393 76.1295 25.582C75.6908 25.1153 75.1168 24.882 74.4075 24.882C73.6981 24.882 73.1241 25.1153 72.6855 25.582C72.2468 26.0393 72.0275 26.6413 72.0275 27.388C72.0275 28.1253 72.2468 28.7273 72.6855 29.194C73.1241 29.6513 73.6981 29.88 74.4075 29.88ZM79.7008 31V23.762H80.6948L80.9888 24.798C81.2035 24.434 81.4695 24.1727 81.7868 24.014C82.1041 23.846 82.4821 23.762 82.9208 23.762H83.2568L83.3688 25.078H82.5848C82.0808 25.078 81.7028 25.2227 81.4508 25.512C81.1988 25.8013 81.0728 26.1933 81.0728 26.688V31H79.7008ZM91.2125 27.332C91.2125 27.5187 91.2078 27.6633 91.1985 27.766H85.2205C85.2952 28.41 85.5472 28.9233 85.9765 29.306C86.4058 29.6887 86.9518 29.88 87.6145 29.88C88.0718 29.88 88.4778 29.7913 88.8325 29.614C89.1965 29.4273 89.4718 29.1847 89.6585 28.886L90.9465 29.096C90.6665 29.7493 90.2138 30.2533 89.5885 30.608C88.9725 30.9627 88.2865 31.14 87.5305 31.14C86.8118 31.14 86.1678 30.9813 85.5985 30.664C85.0292 30.3373 84.5858 29.8893 84.2685 29.32C83.9512 28.7507 83.7925 28.1067 83.7925 27.388C83.7925 26.66 83.9512 26.0113 84.2685 25.442C84.5858 24.8727 85.0245 24.4293 85.5845 24.112C86.1445 23.7853 86.7838 23.622 87.5025 23.622C88.2118 23.622 88.8465 23.7853 89.4065 24.112C89.9758 24.4293 90.4192 24.8727 90.7365 25.442C91.0538 26.002 91.2125 26.632 91.2125 27.332ZM87.5025 24.84C86.9518 24.84 86.4758 25.0033 86.0745 25.33C85.6825 25.6567 85.4212 26.0953 85.2905 26.646H89.7145C89.5932 26.1047 89.3318 25.6707 88.9305 25.344C88.5385 25.008 88.0625 24.84 87.5025 24.84Z" fill="white"/>
</g>
<defs>
<clipPath id="clip0_14_23">
<rect width="108" height="40" fill="white"/>
</clipPath>
</defs>
</svg>
