<svg xmlns="http://www.w3.org/2000/svg" xmlns:xlink="http://www.w3.org/1999/xlink" version="1.1" width="1000" height="1000" viewBox="0 0 1000 1000" xml:space="preserve">
<desc>Created with Fabric.js 3.5.0</desc>
<defs>
</defs>
<rect x="0" y="0" width="100%" height="100%" fill="#ffffff"/>
<g transform="matrix(1.7936 0 0 1.7936 495.6773 503.2792)" id="775665">
<g style="" vector-effect="non-scaling-stroke">
		<g transform="matrix(1 0 0 1 0.0005 52.451)" id="Layer_1">
<path style="stroke: none; stroke-width: 1; stroke-dasharray: none; stroke-linecap: butt; stroke-dashoffset: 0; stroke-linejoin: miter; stroke-miterlimit: 4; is-custom-font: none; font-file-url: none; fill: rgb(17,84,79); fill-rule: nonzero; opacity: 1;" transform=" translate(-256.0005, -308.451)" d="M 417.236 512 H 94.764 c -30.318 0 -54.984 -24.666 -54.984 -54.984 V 159.884 c 0 -30.318 24.666 -54.982 54.984 -54.982 h 322.473 c 30.318 0 54.984 24.666 54.984 54.982 v 297.131 C 472.22 487.334 447.554 512 417.236 512 z M 94.764 131.541 c -15.628 0 -28.344 12.715 -28.344 28.342 v 297.131 c 0 15.628 12.714 28.344 28.344 28.344 h 322.473 c 15.628 0 28.344 -12.715 28.344 -28.344 V 159.884 c 0 -15.627 -12.714 -28.342 -28.344 -28.342 H 94.764 z" stroke-linecap="round"/>
</g>
		<g transform="matrix(1 0 0 1 -0.0005 -91.3245)" id="Layer_1">
<path style="stroke: none; stroke-width: 1; stroke-dasharray: none; stroke-linecap: butt; stroke-dashoffset: 0; stroke-linejoin: miter; stroke-miterlimit: 4; is-custom-font: none; font-file-url: none; fill: rgb(106,183,151); fill-rule: nonzero; opacity: 1;" transform=" translate(-255.9995, -164.6755)" d="M 458.899 211.131 v -51.247 c 0 -23.01 -18.653 -41.664 -41.664 -41.664 H 94.764 c -23.01 0 -41.664 18.653 -41.664 41.664 v 51.247 H 458.899 z" stroke-linecap="round"/>
</g>
		<g transform="matrix(1 0 0 1 0.0005 -91.3235)" id="Layer_1">
<path style="stroke: none; stroke-width: 1; stroke-dasharray: none; stroke-linecap: butt; stroke-dashoffset: 0; stroke-linejoin: miter; stroke-miterlimit: 4; is-custom-font: none; font-file-url: none; fill: rgb(17,84,79); fill-rule: nonzero; opacity: 1;" transform=" translate(-256.0005, -164.6765)" d="M 458.9 224.451 H 53.1 c -7.357 0 -13.32 -5.965 -13.32 -13.32 v -51.247 c 0 -30.318 24.666 -54.982 54.984 -54.982 h 322.473 c 30.318 0 54.984 24.666 54.984 54.982 v 51.247 C 472.22 218.486 466.255 224.451 458.9 224.451 z M 66.42 197.811 h 379.16 v -37.927 c 0 -15.627 -12.714 -28.342 -28.344 -28.342 H 94.764 c -15.628 0 -28.344 12.715 -28.344 28.342 C 66.42 159.884 66.42 197.811 66.42 197.811 z" stroke-linecap="round"/>
</g>
		<g transform="matrix(1 0 0 1 -118.5475 39.5455)" id="Layer_1">
<path style="stroke: none; stroke-width: 1; stroke-dasharray: none; stroke-linecap: butt; stroke-dashoffset: 0; stroke-linejoin: miter; stroke-miterlimit: 4; is-custom-font: none; font-file-url: none; fill: rgb(17,84,79); fill-rule: nonzero; opacity: 1;" transform=" translate(-137.4525, -295.5455)" d="M 110.813 331.842 c -7.357 0 -13.32 -5.965 -13.32 -13.32 v -38.778 c 0 -11.301 9.195 -20.495 20.495 -20.495 h 46.104 c 7.357 0 13.32 5.965 13.32 13.32 s -5.963 13.32 -13.32 13.32 h -39.96 v 32.634 C 124.133 325.877 118.17 331.842 110.813 331.842 z" stroke-linecap="round"/>
</g>
		<g transform="matrix(1 0 0 1 0.8895 39.5455)" id="Layer_1">
<path style="stroke: none; stroke-width: 1; stroke-dasharray: none; stroke-linecap: butt; stroke-dashoffset: 0; stroke-linejoin: miter; stroke-miterlimit: 4; is-custom-font: none; font-file-url: none; fill: rgb(17,84,79); fill-rule: nonzero; opacity: 1;" transform=" translate(-256.8895, -295.5455)" d="M 230.25 331.842 c -7.357 0 -13.32 -5.965 -13.32 -13.32 v -38.778 c 0 -11.301 9.195 -20.495 20.495 -20.495 h 46.104 c 7.357 0 13.32 5.965 13.32 13.32 s -5.963 13.32 -13.32 13.32 h -39.96 v 32.634 C 243.57 325.877 237.607 331.842 230.25 331.842 z" stroke-linecap="round"/>
</g>
		<g transform="matrix(1 0 0 1 120.3275 39.5455)" id="Layer_1">
<path style="stroke: none; stroke-width: 1; stroke-dasharray: none; stroke-linecap: butt; stroke-dashoffset: 0; stroke-linejoin: miter; stroke-miterlimit: 4; is-custom-font: none; font-file-url: none; fill: rgb(17,84,79); fill-rule: nonzero; opacity: 1;" transform=" translate(-376.3275, -295.5455)" d="M 349.688 331.842 c -7.357 0 -13.32 -5.965 -13.32 -13.32 v -38.778 c 0 -11.301 9.195 -20.495 20.495 -20.495 h 46.104 c 7.357 0 13.32 5.965 13.32 13.32 s -5.963 13.32 -13.32 13.32 h -39.96 v 32.634 C 363.008 325.877 357.045 331.842 349.688 331.842 z" stroke-linecap="round"/>
</g>
		<g transform="matrix(1 0 0 1 -118.5475 163.9285)" id="Layer_1">
<path style="stroke: none; stroke-width: 1; stroke-dasharray: none; stroke-linecap: butt; stroke-dashoffset: 0; stroke-linejoin: miter; stroke-miterlimit: 4; is-custom-font: none; font-file-url: none; fill: rgb(17,84,79); fill-rule: nonzero; opacity: 1;" transform=" translate(-137.4525, -419.9285)" d="M 110.813 456.225 c -7.357 0 -13.32 -5.965 -13.32 -13.32 v -38.778 c 0 -11.301 9.195 -20.495 20.495 -20.495 h 46.104 c 7.357 0 13.32 5.965 13.32 13.32 c 0 7.355 -5.963 13.32 -13.32 13.32 h -39.96 v 32.634 C 124.133 450.261 118.17 456.225 110.813 456.225 z" stroke-linecap="round"/>
</g>
		<g transform="matrix(1 0 0 1 0.8895 163.9285)" id="Layer_1">
<path style="stroke: none; stroke-width: 1; stroke-dasharray: none; stroke-linecap: butt; stroke-dashoffset: 0; stroke-linejoin: miter; stroke-miterlimit: 4; is-custom-font: none; font-file-url: none; fill: rgb(17,84,79); fill-rule: nonzero; opacity: 1;" transform=" translate(-256.8895, -419.9285)" d="M 230.25 456.225 c -7.357 0 -13.32 -5.965 -13.32 -13.32 v -38.778 c 0 -11.301 9.195 -20.495 20.495 -20.495 h 46.104 c 7.357 0 13.32 5.965 13.32 13.32 c 0 7.355 -5.963 13.32 -13.32 13.32 h -39.96 v 32.634 C 243.57 450.261 237.607 456.225 230.25 456.225 z" stroke-linecap="round"/>
</g>
		<g transform="matrix(1 0 0 1 120.3275 163.9285)" id="Layer_1">
<path style="stroke: none; stroke-width: 1; stroke-dasharray: none; stroke-linecap: butt; stroke-dashoffset: 0; stroke-linejoin: miter; stroke-miterlimit: 4; is-custom-font: none; font-file-url: none; fill: rgb(17,84,79); fill-rule: nonzero; opacity: 1;" transform=" translate(-376.3275, -419.9285)" d="M 349.688 456.225 c -7.357 0 -13.32 -5.965 -13.32 -13.32 v -38.778 c 0 -11.301 9.195 -20.495 20.495 -20.495 h 46.104 c 7.357 0 13.32 5.965 13.32 13.32 c 0 7.355 -5.963 13.32 -13.32 13.32 h -39.96 v 32.634 C 363.008 450.261 357.045 456.225 349.688 456.225 z" stroke-linecap="round"/>
</g>
		<g transform="matrix(1 0 0 1 -0.001 -171.418)" id="Layer_1">
<path style="stroke: none; stroke-width: 1; stroke-dasharray: none; stroke-linecap: butt; stroke-dashoffset: 0; stroke-linejoin: miter; stroke-miterlimit: 4; is-custom-font: none; font-file-url: none; fill: rgb(17,84,79); fill-rule: nonzero; opacity: 1;" transform=" translate(-255.999, -84.582)" d="M 255.999 123.876 c -7.357 0 -13.32 -5.965 -13.32 -13.32 V 58.608 c 0 -7.355 5.963 -13.32 13.32 -13.32 c 7.357 0 13.32 5.965 13.32 13.32 v 51.948 C 269.319 117.911 263.356 123.876 255.999 123.876 z" stroke-linecap="round"/>
</g>
		<g transform="matrix(1 0 0 1 -0.003 -212.044)" id="Layer_1">
<circle style="stroke: none; stroke-width: 1; stroke-dasharray: none; stroke-linecap: butt; stroke-dashoffset: 0; stroke-linejoin: miter; stroke-miterlimit: 4; is-custom-font: none; font-file-url: none; fill: rgb(106,183,151); fill-rule: nonzero; opacity: 1;" cx="0" cy="0" r="30.636"/>
</g>
		<g transform="matrix(1 0 0 1 -0.001 -212.044)" id="Layer_1">
<path style="stroke: none; stroke-width: 1; stroke-dasharray: none; stroke-linecap: butt; stroke-dashoffset: 0; stroke-linejoin: miter; stroke-miterlimit: 4; is-custom-font: none; font-file-url: none; fill: rgb(17,84,79); fill-rule: nonzero; opacity: 1;" transform=" translate(-255.999, -43.956)" d="M 255.999 87.912 c -24.237 0 -43.956 -19.719 -43.956 -43.956 S 231.762 0 255.999 0 s 43.956 19.719 43.956 43.956 S 280.238 87.912 255.999 87.912 z M 255.999 26.64 c -9.548 0 -17.316 7.768 -17.316 17.316 s 7.768 17.316 17.316 17.316 s 17.316 -7.768 17.316 -17.316 S 265.548 26.64 255.999 26.64 z" stroke-linecap="round"/>
</g>
</g>
</g>
</svg>