<svg xmlns="http://www.w3.org/2000/svg" xmlns:xlink="http://www.w3.org/1999/xlink" version="1.1" width="1000" height="1000" viewBox="0 0 1000 1000" xml:space="preserve">
<desc>Created with Fabric.js 3.5.0</desc>
<defs>
</defs>
<rect x="0" y="0" width="100%" height="100%" fill="#ffffff"/>
<g transform="matrix(2.9163 0 0 2.9163 499.9971 499.9971)" id="109062">
<g style="" vector-effect="non-scaling-stroke">
		<g transform="matrix(1 0 0 1 -0.0005 77.786)" id="Layer_1">
<path style="stroke: none; stroke-width: 1; stroke-dasharray: none; stroke-linecap: butt; stroke-dashoffset: 0; stroke-linejoin: miter; stroke-miterlimit: 4; is-custom-font: none; font-file-url: none; fill: rgb(232,197,158); fill-rule: nonzero; opacity: 1;" transform=" translate(-159.487, -237.2735)" d="M 303.678 253.528 c -11.151 -37.754 -67.121 -33.566 -91.279 -44.408 c -24.157 -10.842 -20.386 -47.219 -23.449 -53.548 h -58.932 c -3.058 6.329 0.714 42.711 -23.449 53.548 c -24.157 10.842 -80.133 6.655 -91.279 44.408 c -6.149 20.824 -5.857 27.193 -7.554 50.26 c 0 0 76.8 15.187 150.014 15.187 s 153.488 -15.187 153.488 -15.187 C 309.536 280.715 309.828 274.352 303.678 253.528 z" stroke-linecap="round"/>
</g>
		<g transform="matrix(1 0 0 1 74.9968 72.758)" id="Layer_1">
<path style="stroke: none; stroke-width: 1; stroke-dasharray: none; stroke-linecap: butt; stroke-dashoffset: 0; stroke-linejoin: miter; stroke-miterlimit: 4; is-custom-font: none; font-file-url: none; fill: rgb(221,181,142); fill-rule: nonzero; opacity: 1;" transform=" translate(-234.4844, -232.2455)" d="M 303.678 253.528 c -11.151 -37.754 -67.121 -33.566 -91.279 -44.408 c -24.157 -10.842 -20.386 -47.219 -23.449 -53.548 h -31.206 c 0 0 -0.719 51.024 23.438 61.866 s 80.133 6.655 91.279 44.408 c 5.857 19.83 5.868 26.552 7.324 47.073 c 19.234 -2.816 31.442 -5.126 31.442 -5.126 C 309.536 280.715 309.828 274.352 303.678 253.528 z" stroke-linecap="round"/>
</g>
		<g transform="matrix(1 0 0 1 -0.0505 23.9455)" id="Layer_1">
<path style="stroke: none; stroke-width: 1; stroke-dasharray: none; stroke-linecap: butt; stroke-dashoffset: 0; stroke-linejoin: miter; stroke-miterlimit: 4; is-custom-font: none; font-file-url: none; fill: rgb(204,162,129); fill-rule: nonzero; opacity: 1;" transform=" translate(-159.437, -183.433)" d="M 122.088 193.168 c 9.78 7.959 21.24 15.85 37.338 18.132 c 16.137 -2.288 27.569 -10.342 37.36 -18.334 c -8.144 -14.973 -5.626 -32.83 -7.83 -37.4 h -58.938 C 127.804 160.142 130.272 178.189 122.088 193.168 z" stroke-linecap="round"/>
</g>
		<g transform="matrix(-0.177 0.9842 -0.9842 -0.177 69.0411 -40.9225)" id="Layer_1">
<ellipse style="stroke: none; stroke-width: 1; stroke-dasharray: none; stroke-linecap: butt; stroke-dashoffset: 0; stroke-linejoin: miter; stroke-miterlimit: 4; is-custom-font: none; font-file-url: none; fill: rgb(221,181,142); fill-rule: nonzero; opacity: 1;" cx="0" cy="0" rx="21.386" ry="11.629"/>
</g>
		<g transform="matrix(-0.9842 0.177 -0.177 -0.9842 -69.2174 -40.9121)" id="Layer_1">
<ellipse style="stroke: none; stroke-width: 1; stroke-dasharray: none; stroke-linecap: butt; stroke-dashoffset: 0; stroke-linejoin: miter; stroke-miterlimit: 4; is-custom-font: none; font-file-url: none; fill: rgb(232,197,158); fill-rule: nonzero; opacity: 1;" cx="0" cy="0" rx="11.629" ry="21.386"/>
</g>
		<g transform="matrix(1 0 0 1 -0.045 -46.7895)" id="Layer_1">
<path style="stroke: none; stroke-width: 1; stroke-dasharray: none; stroke-linecap: butt; stroke-dashoffset: 0; stroke-linejoin: miter; stroke-miterlimit: 4; is-custom-font: none; font-file-url: none; fill: rgb(232,197,158); fill-rule: nonzero; opacity: 1;" transform=" translate(-159.4425, -112.698)" d="M 223.647 47.375 l -64.221 -30.16 l -64.187 30.16 c 0 0 -35.989 146.614 64.187 160.806 C 259.641 193.989 223.647 47.375 223.647 47.375 z" stroke-linecap="round"/>
</g>
		<g transform="matrix(1 0 0 1 35.1943 -31.7095)" id="Layer_1">
<path style="stroke: none; stroke-width: 1; stroke-dasharray: none; stroke-linecap: butt; stroke-dashoffset: 0; stroke-linejoin: miter; stroke-miterlimit: 4; is-custom-font: none; font-file-url: none; fill: rgb(221,181,142); fill-rule: nonzero; opacity: 1;" transform=" translate(-194.6818, -127.778)" d="M 159.426 208.181 c 100.216 -14.192 64.221 -160.806 64.221 -160.806 h -15.024 c 4.114 61.242 9.808 93.774 -13.815 129.24 C 176.091 204.719 159.426 208.181 159.426 208.181 z" stroke-linecap="round"/>
</g>
		<g transform="matrix(1 0 0 1 0.3125 -60.3269)" id="Layer_1">
<path style="stroke: none; stroke-width: 1; stroke-dasharray: none; stroke-linecap: butt; stroke-dashoffset: 0; stroke-linejoin: miter; stroke-miterlimit: 4; is-custom-font: none; font-file-url: none; fill: rgb(221,181,142); fill-rule: nonzero; opacity: 1;" transform=" translate(-159.8, -99.1606)" d="M 102.332 89.215 c 0 0 41.744 27.429 114.936 17.868 V 89.215 H 102.332 z" stroke-linecap="round"/>
</g>
		<g transform="matrix(1 0 0 1 11.0115 -89.6295)" id="Layer_1">
<path style="stroke: none; stroke-width: 1; stroke-dasharray: none; stroke-linecap: butt; stroke-dashoffset: 0; stroke-linejoin: miter; stroke-miterlimit: 4; is-custom-font: none; font-file-url: none; fill: rgb(242,172,47); fill-rule: nonzero; opacity: 1;" transform=" translate(-170.499, -69.858)" d="M 151.164 101.878 c 33.358 5.008 65.165 -0.18 65.165 -0.18 c 2.585 6.762 3.586 28.069 3.861 38.018 l 6.441 -0.045 c 3.041 -10.156 6.863 -43.178 6.863 -43.178 c 16.525 -9.538 27.726 -24.759 30.127 -38.743 c 0 0 -8.504 4.699 -22.218 -2.9 c 13.242 -10.713 10.05 -28.215 10.05 -28.215 s -13.669 7.059 -20.897 5.014 c 0 0 6.7 -5.059 5.632 -18.452 c 0 0 -8.656 8.656 -16.62 7.065 c 0 0 6.823 -5.238 0.899 -15.035 c 0 0 -10.022 7.745 -23.297 5.632 c 0 0 6.334 -2.9 6.334 -10.859 c 0 0 -17.205 11.393 -40.896 7.728 c -22.095 -3.417 -37.113 4.373 -48.86 16.339 c 0 0 -9.864 -1.585 -19.2 7.655 s -8.892 9.24 -14.709 10.134 c 0 0 1.102 9.049 6.458 10.308 c 0 0 -1.759 7.599 -8.92 8.268 c 0 0 1.681 17.907 7.779 18.582 c 0 0 -1.163 8.909 -6.936 11.438 c 0 0 1.709 10.752 9.055 17.907 l 4.991 31.346 h 7.133 c -0.697 -27.923 2.94 -50.507 2.94 -50.507 S 121.431 97.421 151.164 101.878 z" stroke-linecap="round"/>
</g>
		<g transform="matrix(1 0 0 1 75.6025 -102.0371)" id="Layer_1">
<path style="stroke: none; stroke-width: 1; stroke-dasharray: none; stroke-linecap: butt; stroke-dashoffset: 0; stroke-linejoin: miter; stroke-miterlimit: 4; is-custom-font: none; font-file-url: none; fill: rgb(229,154,35); fill-rule: nonzero; opacity: 1;" transform=" translate(-235.09, -57.4504)" d="M 226.013 59.325 c 8.841 0.45 15.389 -4.468 15.389 -4.468 c 0.95 0.528 1.872 0.989 2.765 1.4 l 0 0 C 235.456 62.264 226.013 59.325 226.013 59.325 z" stroke-linecap="round"/>
</g>
		<g transform="matrix(1 0 0 1 66.397 -125.4297)" id="Layer_1">
<path style="stroke: none; stroke-width: 1; stroke-dasharray: none; stroke-linecap: butt; stroke-dashoffset: 0; stroke-linejoin: miter; stroke-miterlimit: 4; is-custom-font: none; font-file-url: none; fill: rgb(229,154,35); fill-rule: nonzero; opacity: 1;" transform=" translate(-225.8845, -34.0578)" d="M 217.268 35.712 c 8.38 0.781 13.287 -4.052 13.287 -4.052 c 1.175 0.332 2.518 0.422 3.946 0.343 l 0 0 C 229.105 38.922 217.268 35.712 217.268 35.712 z" stroke-linecap="round"/>
</g>
		<g transform="matrix(1 0 0 1 56.8495 -137.6621)" id="Layer_1">
<path style="stroke: none; stroke-width: 1; stroke-dasharray: none; stroke-linecap: butt; stroke-dashoffset: 0; stroke-linejoin: miter; stroke-miterlimit: 4; is-custom-font: none; font-file-url: none; fill: rgb(229,154,35); fill-rule: nonzero; opacity: 1;" transform=" translate(-216.337, -21.8254)" d="M 208.55 22.392 c 5.598 1.343 11.016 -2.125 11.016 -2.125 c 1.518 0.304 3.058 0.236 4.558 -0.073 c 0 0.045 -0.017 0.073 -0.017 0.073 C 218.066 25.865 208.55 22.392 208.55 22.392 z" stroke-linecap="round"/>
</g>
		<g transform="matrix(1 0 0 1 35.1285 -147.4455)" id="Layer_1">
<path style="stroke: none; stroke-width: 1; stroke-dasharray: none; stroke-linecap: butt; stroke-dashoffset: 0; stroke-linejoin: miter; stroke-miterlimit: 4; is-custom-font: none; font-file-url: none; fill: rgb(229,154,35); fill-rule: nonzero; opacity: 1;" transform=" translate(-194.616, -12.042)" d="M 187.731 12.763 c 4.586 0.225 9.437 -1.9 9.437 -1.9 c 1.489 0.236 2.934 0.343 4.333 0.36 l 0 0 C 194.004 14.495 187.731 12.763 187.731 12.763 z" stroke-linecap="round"/>
</g>
		<g transform="matrix(1 0 0 1 -0.0615 107.366)" id="Layer_1">
<path style="stroke: none; stroke-width: 1; stroke-dasharray: none; stroke-linecap: butt; stroke-dashoffset: 0; stroke-linejoin: miter; stroke-miterlimit: 4; is-custom-font: none; font-file-url: none; fill: rgb(234,229,220); fill-rule: nonzero; opacity: 1;" transform=" translate(-159.426, -266.8535)" d="M 86.538 214.757 c -8.043 1.624 -16.884 3.119 -25.557 5.21 c 1.09 11.489 5.143 58.404 2.226 92.442 c 27.221 3.423 61.253 6.565 94.544 6.565 c 34.022 0 69.566 -3.282 97.872 -6.79 c -2.878 -34.044 1.169 -80.83 2.248 -92.246 c -8.678 -2.085 -17.519 -3.58 -25.551 -5.205 c -16.069 56.245 -58.404 55.683 -72.894 55.683 C 144.936 270.418 102.613 270.98 86.538 214.757 z" stroke-linecap="round"/>
</g>
		<g transform="matrix(1 0 0 1 83.1655 67.902)" id="Layer_1">
<path style="stroke: none; stroke-width: 1; stroke-dasharray: none; stroke-linecap: butt; stroke-dashoffset: 0; stroke-linejoin: miter; stroke-miterlimit: 4; is-custom-font: none; font-file-url: none; fill: rgb(224,219,211); fill-rule: nonzero; opacity: 1;" transform=" translate(-242.653, -227.3895)" d="M 227.435 228.443 c 10.454 2.557 20.628 6.008 28.817 11.607 c 0.624 -9.257 1.27 -16.48 1.619 -20.116 c -8.678 -2.085 -17.519 -3.58 -25.551 -5.205 C 230.886 219.743 229.245 224.295 227.435 228.443 z" stroke-linecap="round"/>
</g>
</g>
</g>
<g transform="matrix(8.8613 0 0 8.8613 500.0007 805.6143)" id="604431">
<g style="" vector-effect="non-scaling-stroke">
		<g transform="matrix(1 0 0 1 -5.2395 -9.5)">
<path style="stroke: none; stroke-width: 1; stroke-dasharray: none; stroke-linecap: butt; stroke-dashoffset: 0; stroke-linejoin: miter; stroke-miterlimit: 4; is-custom-font: none; font-file-url: none; fill: rgb(85,172,238); fill-rule: nonzero; opacity: 1;" transform=" translate(-12.7605, -8.5)" d="M 18 8 l -7 -8 H 0 l 14 17 l 11.521 -4.75 z" stroke-linecap="round"/>
</g>
		<g transform="matrix(1 0 0 1 9 -10.344)">
<path style="stroke: none; stroke-width: 1; stroke-dasharray: none; stroke-linecap: butt; stroke-dashoffset: 0; stroke-linejoin: miter; stroke-miterlimit: 4; is-custom-font: none; font-file-url: none; fill: rgb(59,136,195); fill-rule: nonzero; opacity: 1;" transform=" translate(-27, -7.656)" d="M 25 0 l -7 8 l 5.39 7.312 l 1.227 -1.489 L 36 0 z" stroke-linecap="round"/>
</g>
		<g transform="matrix(1 0 0 1 0.0025 6.6665)">
<path style="stroke: none; stroke-width: 1; stroke-dasharray: none; stroke-linecap: butt; stroke-dashoffset: 0; stroke-linejoin: miter; stroke-miterlimit: 4; is-custom-font: none; font-file-url: none; fill: rgb(255,172,51); fill-rule: nonzero; opacity: 1;" transform=" translate(-18.0025, -24.6665)" d="M 23.205 16.026 c 0.08 -0.217 0.131 -0.448 0.131 -0.693 a 2 2 0 0 0 -2 -2 h -6.667 a 2 2 0 0 0 -2 2 c 0 0.245 0.05 0.476 0.131 0.693 c -3.258 1.826 -5.464 5.307 -5.464 9.307 C 7.335 31.224 12.111 36 18.002 36 s 10.667 -4.776 10.667 -10.667 c 0 -4 -2.206 -7.481 -5.464 -9.307 z" stroke-linecap="round"/>
</g>
		<g transform="matrix(1 0 0 1 -0.7095 6.9565)">
<path style="stroke: none; stroke-width: 1; stroke-dasharray: none; stroke-linecap: butt; stroke-dashoffset: 0; stroke-linejoin: miter; stroke-miterlimit: 4; is-custom-font: none; font-file-url: none; fill: rgb(158,82,0); fill-rule: nonzero; opacity: 1;" transform=" translate(-17.2905, -24.9565)" d="M 19.404 18.6 h -1.721 l -2.73 2.132 a 0.528 0.528 0 0 0 -0.112 0.28 v 1.178 c 0 0.186 0.15 0.354 0.337 0.354 h 1.795 v 8.414 c 0 0.188 0.15 0.355 0.355 0.355 h 2.076 c 0.186 0 0.336 -0.168 0.336 -0.355 V 18.954 c 0 -0.186 -0.149 -0.354 -0.336 -0.354 z" stroke-linecap="round"/>
</g>
</g>
</g>
</svg>