<svg xmlns="http://www.w3.org/2000/svg" xmlns:xlink="http://www.w3.org/1999/xlink" version="1.1" width="1000" height="1000" viewBox="0 0 1000 1000" xml:space="preserve">
<desc>Created with Fabric.js 3.5.0</desc>
<defs>
</defs>
<rect x="0" y="0" width="100%" height="100%" fill="#ffffff"/>
<g transform="matrix(1.8303 0 0 1.8303 500 500)" id="527142">
<g style="" vector-effect="non-scaling-stroke">
		<g transform="matrix(1 0 0 1 62.7285 -62.0505)" id="Layer_1">
<circle style="stroke: none; stroke-width: 1; stroke-dasharray: none; stroke-linecap: butt; stroke-dashoffset: 0; stroke-linejoin: miter; stroke-miterlimit: 4; is-custom-font: none; font-file-url: none; fill: rgb(86,84,95); fill-rule: nonzero; opacity: 1;" cx="0" cy="0" r="58.66"/>
</g>
		<g transform="matrix(1 0 0 1 -62.7285 -62.0505)" id="Layer_1">
<circle style="stroke: none; stroke-width: 1; stroke-dasharray: none; stroke-linecap: butt; stroke-dashoffset: 0; stroke-linejoin: miter; stroke-miterlimit: 4; is-custom-font: none; font-file-url: none; fill: rgb(86,84,95); fill-rule: nonzero; opacity: 1;" cx="0" cy="0" r="58.66"/>
</g>
		<g transform="matrix(1 0 0 1 0.001 -150.7175)" id="Layer_1">
<path style="stroke: none; stroke-width: 1; stroke-dasharray: none; stroke-linecap: butt; stroke-dashoffset: 0; stroke-linejoin: miter; stroke-miterlimit: 4; is-custom-font: none; font-file-url: none; fill: rgb(86,84,95); fill-rule: nonzero; opacity: 1;" transform=" translate(-254.3055, -103.587)" d="M 362.13 57.981 c -3.052 0 -6.103 0.339 -9.155 0.678 C 333.987 23.735 297.028 0 254.305 0 l 0 0 c -42.723 0 -79.682 23.735 -98.67 58.66 c -3.052 -0.339 -6.103 -0.678 -9.155 -0.678 c -41.028 0 -74.596 33.229 -74.596 74.596 c 0 41.028 33.229 74.596 74.596 74.596 c 24.074 0 45.436 -11.189 58.999 -28.821 h 97.653 c 13.563 17.632 34.925 28.821 58.999 28.821 c 41.028 0 74.596 -33.229 74.596 -74.596 C 436.726 91.55 403.158 57.981 362.13 57.981 z" stroke-linecap="round"/>
</g>
		<g transform="matrix(1 0 0 1 0 33.06)" id="Layer_1">
<path style="stroke: none; stroke-width: 1; stroke-dasharray: none; stroke-linecap: butt; stroke-dashoffset: 0; stroke-linejoin: miter; stroke-miterlimit: 4; is-custom-font: none; font-file-url: none; fill: rgb(238,180,144); fill-rule: nonzero; opacity: 1;" transform=" translate(-254.3045, -287.3645)" d="M 254.305 367.555 c 43.062 0 81.038 -19.327 102.739 -48.148 l -8.816 -2.034 c -23.396 -5.425 -39.672 -26.109 -39.672 -50.183 v -60.016 H 200.053 v 60.016 c 0 23.735 -16.275 44.758 -39.672 50.183 l -8.816 2.034 C 173.266 348.567 211.242 367.555 254.305 367.555 z" stroke-linecap="round"/>
</g>
		<g transform="matrix(1 0 0 1 0.0005 -76.1215)" id="Layer_1">
<path style="stroke: none; stroke-width: 1; stroke-dasharray: none; stroke-linecap: butt; stroke-dashoffset: 0; stroke-linejoin: miter; stroke-miterlimit: 4; is-custom-font: none; font-file-url: none; fill: rgb(250,204,180); fill-rule: nonzero; opacity: 1;" transform=" translate(-254.305, -178.183)" d="M 281.431 86.464 c -37.298 53.234 -78.665 58.999 -98.331 57.981 v 54.252 c 0 39.332 31.873 71.205 71.205 71.205 s 71.205 -31.873 71.205 -71.205 V 149.87 C 280.752 122.405 281.431 86.464 281.431 86.464 z" stroke-linecap="round"/>
</g>
		<g transform="matrix(1 0 0 1 -162.5954 163.434)" id="Layer_1">
<path style="stroke: none; stroke-width: 1; stroke-dasharray: none; stroke-linecap: butt; stroke-dashoffset: 0; stroke-linejoin: miter; stroke-miterlimit: 4; is-custom-font: none; font-file-url: none; fill: rgb(238,180,144); fill-rule: nonzero; opacity: 1;" transform=" translate(-91.7091, -417.7385)" d="M 114.607 444.525 c 40.011 -54.93 17.293 -100.366 5.764 -117.658 l -29.16 6.781 c -26.787 6.442 -45.097 28.143 -45.097 53.574 v 121.388 h 73.24 C 101.044 475.38 114.607 444.525 114.607 444.525 z" stroke-linecap="round"/>
</g>
		<g transform="matrix(1 0 0 1 0.0005 159.704)" id="Layer_1">
<path style="stroke: none; stroke-width: 1; stroke-dasharray: none; stroke-linecap: butt; stroke-dashoffset: 0; stroke-linejoin: miter; stroke-miterlimit: 4; is-custom-font: none; font-file-url: none; fill: rgb(157,144,197); fill-rule: nonzero; opacity: 1;" transform=" translate(-254.305, -414.0085)" d="M 394.003 444.525 c -40.011 -54.93 -17.293 -100.366 -5.764 -117.658 l -31.195 -7.46 c -21.701 28.821 -59.677 48.148 -102.739 48.148 s -81.038 -19.327 -102.739 -48.148 l -31.195 7.46 c 11.868 17.293 34.246 62.728 -5.764 117.658 c 0 0 -13.563 30.856 4.747 64.085 h 269.902 C 407.566 475.38 394.003 444.525 394.003 444.525 z" stroke-linecap="round"/>
</g>
		<g transform="matrix(1 0 0 1 162.5436 163.434)" id="Layer_1">
<path style="stroke: none; stroke-width: 1; stroke-dasharray: none; stroke-linecap: butt; stroke-dashoffset: 0; stroke-linejoin: miter; stroke-miterlimit: 4; is-custom-font: none; font-file-url: none; fill: rgb(238,180,144); fill-rule: nonzero; opacity: 1;" transform=" translate(-416.8481, -417.7385)" d="M 417.399 333.648 l -29.16 -6.781 c -11.868 17.293 -34.246 62.728 5.764 117.658 c 0 0 13.563 30.856 -4.747 64.085 h 73.24 V 387.221 C 462.495 362.13 443.846 340.09 417.399 333.648 z" stroke-linecap="round"/>
</g>
</g>
</g>
<g transform="matrix(9.6845 0 0 9.6845 500.0005 791.1336)" id="604431">
<g style="" vector-effect="non-scaling-stroke">
		<g transform="matrix(1 0 0 1 -5.2395 -9.5)">
<path style="stroke: none; stroke-width: 1; stroke-dasharray: none; stroke-linecap: butt; stroke-dashoffset: 0; stroke-linejoin: miter; stroke-miterlimit: 4; is-custom-font: none; font-file-url: none; fill: rgb(85,172,238); fill-rule: nonzero; opacity: 1;" transform=" translate(-12.7605, -8.5)" d="M 18 8 l -7 -8 H 0 l 14 17 l 11.521 -4.75 z" stroke-linecap="round"/>
</g>
		<g transform="matrix(1 0 0 1 9 -10.344)">
<path style="stroke: none; stroke-width: 1; stroke-dasharray: none; stroke-linecap: butt; stroke-dashoffset: 0; stroke-linejoin: miter; stroke-miterlimit: 4; is-custom-font: none; font-file-url: none; fill: rgb(59,136,195); fill-rule: nonzero; opacity: 1;" transform=" translate(-27, -7.656)" d="M 25 0 l -7 8 l 5.39 7.312 l 1.227 -1.489 L 36 0 z" stroke-linecap="round"/>
</g>
		<g transform="matrix(1 0 0 1 0.0025 6.6665)">
<path style="stroke: none; stroke-width: 1; stroke-dasharray: none; stroke-linecap: butt; stroke-dashoffset: 0; stroke-linejoin: miter; stroke-miterlimit: 4; is-custom-font: none; font-file-url: none; fill: rgb(255,172,51); fill-rule: nonzero; opacity: 1;" transform=" translate(-18.0025, -24.6665)" d="M 23.205 16.026 c 0.08 -0.217 0.131 -0.448 0.131 -0.693 a 2 2 0 0 0 -2 -2 h -6.667 a 2 2 0 0 0 -2 2 c 0 0.245 0.05 0.476 0.131 0.693 c -3.258 1.826 -5.464 5.307 -5.464 9.307 C 7.335 31.224 12.111 36 18.002 36 s 10.667 -4.776 10.667 -10.667 c 0 -4 -2.206 -7.481 -5.464 -9.307 z" stroke-linecap="round"/>
</g>
		<g transform="matrix(1 0 0 1 -0.7095 6.9565)">
<path style="stroke: none; stroke-width: 1; stroke-dasharray: none; stroke-linecap: butt; stroke-dashoffset: 0; stroke-linejoin: miter; stroke-miterlimit: 4; is-custom-font: none; font-file-url: none; fill: rgb(158,82,0); fill-rule: nonzero; opacity: 1;" transform=" translate(-17.2905, -24.9565)" d="M 19.404 18.6 h -1.721 l -2.73 2.132 a 0.528 0.528 0 0 0 -0.112 0.28 v 1.178 c 0 0.186 0.15 0.354 0.337 0.354 h 1.795 v 8.414 c 0 0.188 0.15 0.355 0.355 0.355 h 2.076 c 0.186 0 0.336 -0.168 0.336 -0.355 V 18.954 c 0 -0.186 -0.149 -0.354 -0.336 -0.354 z" stroke-linecap="round"/>
</g>
</g>
</g>
</svg>