<svg xmlns="http://www.w3.org/2000/svg" xmlns:xlink="http://www.w3.org/1999/xlink" version="1.1" width="1000" height="1000" viewBox="0 0 1000 1000" xml:space="preserve">
<desc>Created with Fabric.js 3.5.0</desc>
<defs>
</defs>
<rect x="0" y="0" width="100%" height="100%" fill="#ffffff"/>
<g transform="matrix(1.7835 0 0 1.7835 500.0097 500.0097)" id="722227">
<g style="" vector-effect="non-scaling-stroke">
		<g transform="matrix(1 0 0 1 -136.533 -12.8)" id="Layer_1">
<polygon style="stroke: none; stroke-width: 1; stroke-dasharray: none; stroke-linecap: butt; stroke-dashoffset: 0; stroke-linejoin: miter; stroke-miterlimit: 4; is-custom-font: none; font-file-url: none; fill: rgb(113,194,133); fill-rule: nonzero; opacity: 1;" points="0,-157.867 -102.4,157.867 0,157.867 102.4,157.867 "/>
</g>
		<g transform="matrix(1 0 0 1 -123.733 55.4657)" id="Layer_1">
<path style="stroke: none; stroke-width: 1; stroke-dasharray: none; stroke-linecap: butt; stroke-dashoffset: 0; stroke-linejoin: miter; stroke-miterlimit: 4; is-custom-font: none; font-file-url: none; fill: rgb(128,69,55); fill-rule: nonzero; opacity: 1;" transform=" translate(-132.267, -312.4656)" d="M 119.467 333.8 c -2.185 0 -4.369 -0.836 -6.033 -2.5 c -3.337 -3.337 -3.337 -8.73 0 -12.066 l 25.6 -25.6 c 3.337 -3.337 8.73 -3.337 12.066 0 c 3.337 3.337 3.337 8.73 0 12.066 l -25.6 25.6 C 123.836 332.964 121.651 333.8 119.467 333.8" stroke-linecap="round"/>
</g>
		<g transform="matrix(1 0 0 1 -149.333 55.4657)" id="Layer_1">
<path style="stroke: none; stroke-width: 1; stroke-dasharray: none; stroke-linecap: butt; stroke-dashoffset: 0; stroke-linejoin: miter; stroke-miterlimit: 4; is-custom-font: none; font-file-url: none; fill: rgb(128,69,55); fill-rule: nonzero; opacity: 1;" transform=" translate(-106.667, -312.4656)" d="M 119.467 333.8 c -2.185 0 -4.369 -0.836 -6.033 -2.5 l -25.6 -25.6 c -3.337 -3.337 -3.337 -8.73 0 -12.066 c 3.337 -3.337 8.73 -3.337 12.066 0 l 25.6 25.6 c 3.337 3.337 3.337 8.73 0 12.066 C 123.836 332.964 121.651 333.8 119.467 333.8" stroke-linecap="round"/>
</g>
		<g transform="matrix(1 0 0 1 -136.533 157.867)" id="Layer_1">
<path style="stroke: none; stroke-width: 1; stroke-dasharray: none; stroke-linecap: butt; stroke-dashoffset: 0; stroke-linejoin: miter; stroke-miterlimit: 4; is-custom-font: none; font-file-url: none; fill: rgb(128,69,55); fill-rule: nonzero; opacity: 1;" transform=" translate(-119.467, -414.867)" d="M 119.467 513 c -4.719 0 -8.533 -3.814 -8.533 -8.533 v -179.2 c 0 -4.719 3.814 -8.533 8.533 -8.533 c 4.719 0 8.533 3.814 8.533 8.533 v 179.2 C 128 509.186 124.186 513 119.467 513" stroke-linecap="round"/>
</g>
		<g transform="matrix(1 0 0 1 128 -119.4665)" id="Layer_1">
<path style="stroke: none; stroke-width: 1; stroke-dasharray: none; stroke-linecap: butt; stroke-dashoffset: 0; stroke-linejoin: miter; stroke-miterlimit: 4; is-custom-font: none; font-file-url: none; fill: rgb(189,195,199); fill-rule: nonzero; opacity: 1;" transform=" translate(-384, -137.5335)" d="M 438.4 139.667 c 12.322 0 22.4 11.042 22.4 24.533 c 0 13.491 -10.078 24.533 -22.4 24.533 h -96 h -3.2 c -17.673 0 -32 -15.693 -32 -35.046 s 14.327 -35.046 32 -35.046 c 0 0 16.93 -32.307 53.333 -32.307 c 22.801 0 42.667 16.973 42.667 53.333 H 438.4 z" stroke-linecap="round"/>
</g>
		<g transform="matrix(1 0 0 1 -17.067 -221.8665)" id="Layer_1">
<path style="stroke: none; stroke-width: 1; stroke-dasharray: none; stroke-linecap: butt; stroke-dashoffset: 0; stroke-linejoin: miter; stroke-miterlimit: 4; is-custom-font: none; font-file-url: none; fill: rgb(149,165,165); fill-rule: nonzero; opacity: 1;" transform=" translate(-238.933, -35.1335)" d="M 213.333 69.267 c -4.719 0 -8.533 -3.814 -8.533 -8.533 C 204.8 27.803 231.603 1 264.533 1 c 4.719 0 8.533 3.814 8.533 8.533 s -3.814 8.533 -8.533 8.533 c -23.526 0 -42.667 19.14 -42.667 42.667 C 221.867 65.452 218.052 69.267 213.333 69.267" stroke-linecap="round"/>
</g>
		<g transform="matrix(1 0 0 1 -63.9995 -217.599)" id="Layer_1">
<path style="stroke: none; stroke-width: 1; stroke-dasharray: none; stroke-linecap: butt; stroke-dashoffset: 0; stroke-linejoin: miter; stroke-miterlimit: 4; is-custom-font: none; font-file-url: none; fill: rgb(149,165,165); fill-rule: nonzero; opacity: 1;" transform=" translate(-192.0005, -39.401)" d="M 213.333 69.267 c -4.719 0 -8.533 -3.814 -8.533 -8.533 c 0 -18.825 -15.309 -34.133 -34.133 -34.133 c -4.719 0 -8.533 -3.814 -8.533 -8.533 s 3.814 -8.533 8.533 -8.533 c 28.237 0 51.2 22.963 51.2 51.2 C 221.867 65.452 218.052 69.267 213.333 69.267" stroke-linecap="round"/>
</g>
		<g transform="matrix(1 0 0 1 59.733 226.1335)" id="Layer_1">
<path style="stroke: none; stroke-width: 1; stroke-dasharray: none; stroke-linecap: butt; stroke-dashoffset: 0; stroke-linejoin: miter; stroke-miterlimit: 4; is-custom-font: none; font-file-url: none; fill: rgb(203,130,82); fill-rule: nonzero; opacity: 1;" transform=" translate(-315.733, -483.1335)" d="M 315.733 513 c -4.719 0 -8.533 -3.814 -8.533 -8.533 V 461.8 c 0 -4.719 3.814 -8.533 8.533 -8.533 c 4.719 0 8.533 3.814 8.533 8.533 v 42.667 C 324.267 509.186 320.452 513 315.733 513" stroke-linecap="round"/>
</g>
		<g transform="matrix(1 0 0 1 179.2 226.1335)" id="Layer_1">
<path style="stroke: none; stroke-width: 1; stroke-dasharray: none; stroke-linecap: butt; stroke-dashoffset: 0; stroke-linejoin: miter; stroke-miterlimit: 4; is-custom-font: none; font-file-url: none; fill: rgb(203,130,82); fill-rule: nonzero; opacity: 1;" transform=" translate(-435.2, -483.1335)" d="M 435.2 513 c -4.719 0 -8.533 -3.814 -8.533 -8.533 V 461.8 c 0 -4.719 3.814 -8.533 8.533 -8.533 c 4.719 0 8.533 3.814 8.533 8.533 v 42.667 C 443.733 509.186 439.919 513 435.2 513" stroke-linecap="round"/>
</g>
		<g transform="matrix(1 0 0 1 59.733 145.067)" id="Layer_1">
<path style="stroke: none; stroke-width: 1; stroke-dasharray: none; stroke-linecap: butt; stroke-dashoffset: 0; stroke-linejoin: miter; stroke-miterlimit: 4; is-custom-font: none; font-file-url: none; fill: rgb(203,130,82); fill-rule: nonzero; opacity: 1;" transform=" translate(-315.733, -402.067)" d="M 315.733 427.667 c -4.719 0 -8.533 -3.814 -8.533 -8.533 V 385 c 0 -4.719 3.814 -8.533 8.533 -8.533 c 4.719 0 8.533 3.814 8.533 8.533 v 34.133 C 324.267 423.852 320.452 427.667 315.733 427.667" stroke-linecap="round"/>
</g>
		<g transform="matrix(1 0 0 1 179.2 145.067)" id="Layer_1">
<path style="stroke: none; stroke-width: 1; stroke-dasharray: none; stroke-linecap: butt; stroke-dashoffset: 0; stroke-linejoin: miter; stroke-miterlimit: 4; is-custom-font: none; font-file-url: none; fill: rgb(203,130,82); fill-rule: nonzero; opacity: 1;" transform=" translate(-435.2, -402.067)" d="M 435.2 427.667 c -4.719 0 -8.533 -3.814 -8.533 -8.533 V 385 c 0 -4.719 3.814 -8.533 8.533 -8.533 c 4.719 0 8.533 3.814 8.533 8.533 v 34.133 C 443.733 423.852 439.919 427.667 435.2 427.667" stroke-linecap="round"/>
</g>
		<g transform="matrix(1 0 0 1 59.733 102.4)" id="Layer_1">
<path style="stroke: none; stroke-width: 1; stroke-dasharray: none; stroke-linecap: butt; stroke-dashoffset: 0; stroke-linejoin: miter; stroke-miterlimit: 4; is-custom-font: none; font-file-url: none; fill: rgb(203,130,82); fill-rule: nonzero; opacity: 1;" transform=" translate(-315.733, -359.4)" d="M 315.733 393.533 c -4.719 0 -8.533 -3.814 -8.533 -8.533 v -51.2 c 0 -4.719 3.814 -8.533 8.533 -8.533 c 4.719 0 8.533 3.814 8.533 8.533 V 385 C 324.267 389.719 320.452 393.533 315.733 393.533" stroke-linecap="round"/>
</g>
		<g transform="matrix(1 0 0 1 179.2 102.4)" id="Layer_1">
<path style="stroke: none; stroke-width: 1; stroke-dasharray: none; stroke-linecap: butt; stroke-dashoffset: 0; stroke-linejoin: miter; stroke-miterlimit: 4; is-custom-font: none; font-file-url: none; fill: rgb(203,130,82); fill-rule: nonzero; opacity: 1;" transform=" translate(-435.2, -359.4)" d="M 435.2 393.533 c -4.719 0 -8.533 -3.814 -8.533 -8.533 v -51.2 c 0 -4.719 3.814 -8.533 8.533 -8.533 c 4.719 0 8.533 3.814 8.533 8.533 V 385 C 443.733 389.719 439.919 393.533 435.2 393.533" stroke-linecap="round"/>
</g>
		<g transform="matrix(1 0 0 1 119.467 183.4665)" id="Layer_1">
<path style="stroke: none; stroke-width: 1; stroke-dasharray: none; stroke-linecap: butt; stroke-dashoffset: 0; stroke-linejoin: miter; stroke-miterlimit: 4; is-custom-font: none; font-file-url: none; fill: rgb(128,83,51); fill-rule: nonzero; opacity: 1;" transform=" translate(-375.467, -440.4665)" d="M 469.333 461.8 H 281.6 v -15.727 c 0 -14.882 12.058 -26.94 26.94 -26.94 h 133.854 c 14.882 0 26.94 12.058 26.94 26.94 V 461.8 z" stroke-linecap="round"/>
</g>
		<g transform="matrix(1 0 0 1 119.4665 128)" id="Layer_1">
<path style="stroke: none; stroke-width: 1; stroke-dasharray: none; stroke-linecap: butt; stroke-dashoffset: 0; stroke-linejoin: miter; stroke-miterlimit: 4; is-custom-font: none; font-file-url: none; fill: rgb(203,130,82); fill-rule: nonzero; opacity: 1;" transform=" translate(-375.4665, -385)" d="M 460.8 393.533 H 290.133 c -4.719 0 -8.533 -3.814 -8.533 -8.533 c 0 -4.719 3.814 -8.533 8.533 -8.533 H 460.8 c 4.719 0 8.533 3.814 8.533 8.533 C 469.333 389.719 465.519 393.533 460.8 393.533" stroke-linecap="round"/>
</g>
		<g transform="matrix(1 0 0 1 119.4665 93.867)" id="Layer_1">
<path style="stroke: none; stroke-width: 1; stroke-dasharray: none; stroke-linecap: butt; stroke-dashoffset: 0; stroke-linejoin: miter; stroke-miterlimit: 4; is-custom-font: none; font-file-url: none; fill: rgb(203,130,82); fill-rule: nonzero; opacity: 1;" transform=" translate(-375.4665, -350.867)" d="M 460.8 359.4 H 290.133 c -4.719 0 -8.533 -3.814 -8.533 -8.533 c 0 -4.719 3.814 -8.533 8.533 -8.533 H 460.8 c 4.719 0 8.533 3.814 8.533 8.533 C 469.333 355.586 465.519 359.4 460.8 359.4" stroke-linecap="round"/>
</g>
		<g transform="matrix(1 0 0 1 -0.0005 247.467)" id="Layer_1">
<path style="stroke: none; stroke-width: 1; stroke-dasharray: none; stroke-linecap: butt; stroke-dashoffset: 0; stroke-linejoin: miter; stroke-miterlimit: 4; is-custom-font: none; font-file-url: none; fill: rgb(149,165,165); fill-rule: nonzero; opacity: 1;" transform=" translate(-255.9995, -504.467)" d="M 503.467 513 H 8.533 C 3.814 513 0 509.186 0 504.467 c 0 -4.719 3.814 -8.533 8.533 -8.533 h 494.933 c 4.719 0 8.533 3.814 8.533 8.533 C 512 509.186 508.186 513 503.467 513" stroke-linecap="round"/>
</g>
</g>
</g>
</svg>