<svg xmlns="http://www.w3.org/2000/svg" xmlns:xlink="http://www.w3.org/1999/xlink" version="1.1" width="1000" height="1000" viewBox="0 0 1000 1000" xml:space="preserve">
<desc>Created with Fabric.js 3.5.0</desc>
<defs>
</defs>
<rect x="0" y="0" width="100%" height="100%" fill="#ffffff"/>
<g transform="matrix(0.836 0 0 0.836 743.0858 277.9695)" id="678973">
<g style="" vector-effect="non-scaling-stroke">
		<g transform="matrix(1 0 0 1 139.6365 178.424)" id="Layer_1">
<path style="stroke: none; stroke-width: 1; stroke-dasharray: none; stroke-linecap: butt; stroke-dashoffset: 0; stroke-linejoin: miter; stroke-miterlimit: 4; is-custom-font: none; font-file-url: none; fill: rgb(255,98,67); fill-rule: nonzero; opacity: 1;" transform=" translate(-395.6365, -434.424)" d="M 442.182 356.848 h -46.53 h -46.561 c -12.853 0 -23.273 10.42 -23.273 23.273 v 108.606 c 0 12.853 10.42 23.273 23.273 23.273 h 46.561 h 46.53 c 12.853 0 23.273 -10.42 23.273 -23.273 V 380.121 C 465.455 367.268 455.035 356.848 442.182 356.848 z" stroke-linecap="round"/>
</g>
		<g transform="matrix(1 0 0 1 139.6513 -100.8485)" id="Layer_1">
<path style="stroke: none; stroke-width: 1; stroke-dasharray: none; stroke-linecap: butt; stroke-dashoffset: 0; stroke-linejoin: miter; stroke-miterlimit: 4; is-custom-font: none; font-file-url: none; fill: rgb(255,98,67); fill-rule: nonzero; opacity: 1;" transform=" translate(-395.6513, -155.1515)" d="M 480.662 283.055 L 449.781 20.554 C 448.402 8.833 438.467 0 426.667 0 h -31.015 h -31.046 c -11.801 0 -21.735 8.833 -23.114 20.553 l -31.03 263.758 c -0.776 6.602 1.306 13.219 5.724 18.185 c 4.417 4.966 10.746 7.807 17.391 7.807 h 62.076 h 62.045 c 0.011 0 0.023 0 0.029 0 c 12.854 0 23.273 -10.42 23.273 -23.273 C 480.999 285.674 480.884 284.346 480.662 283.055 z" stroke-linecap="round"/>
</g>
		<g transform="matrix(1 0 0 1 -139.6365 178.424)" id="Layer_1">
<path style="stroke: none; stroke-width: 1; stroke-dasharray: none; stroke-linecap: butt; stroke-dashoffset: 0; stroke-linejoin: miter; stroke-miterlimit: 4; is-custom-font: none; font-file-url: none; fill: rgb(255,98,67); fill-rule: nonzero; opacity: 1;" transform=" translate(-116.3635, -434.424)" d="M 162.909 356.848 h -46.53 H 69.818 c -12.853 0 -23.273 10.42 -23.273 23.273 v 108.606 c 0 12.853 10.42 23.273 23.273 23.273 h 46.561 h 46.53 c 12.853 0 23.273 -10.42 23.273 -23.273 V 380.121 C 186.182 367.268 175.762 356.848 162.909 356.848 z" stroke-linecap="round"/>
</g>
		<g transform="matrix(1 0 0 1 -139.6217 -100.849)" id="Layer_1">
<path style="stroke: none; stroke-width: 1; stroke-dasharray: none; stroke-linecap: butt; stroke-dashoffset: 0; stroke-linejoin: miter; stroke-miterlimit: 4; is-custom-font: none; font-file-url: none; fill: rgb(255,98,67); fill-rule: nonzero; opacity: 1;" transform=" translate(-116.3783, -155.151)" d="M 201.39 283.055 L 170.508 20.554 C 169.129 8.833 159.195 0 147.394 0 h -31.015 H 85.333 C 73.533 0 63.598 8.833 62.219 20.553 L 31.189 284.31 c -0.776 6.602 1.306 13.219 5.724 18.185 c 4.417 4.966 10.746 7.807 17.391 7.807 h 62.076 h 62.045 c 0.012 0 0.025 0 0.029 0 c 12.854 0 23.273 -10.42 23.273 -23.273 C 201.726 285.674 201.612 284.346 201.39 283.055 z" stroke-linecap="round"/>
</g>
		<g transform="matrix(1 0 0 1 -174.538 178.424)" id="Layer_1">
<path style="stroke: none; stroke-width: 1; stroke-dasharray: none; stroke-linecap: butt; stroke-dashoffset: 0; stroke-linejoin: miter; stroke-miterlimit: 4; is-custom-font: none; font-file-url: none; fill: rgb(255,12,56); fill-rule: nonzero; opacity: 1;" transform=" translate(-81.462, -434.424)" d="M 46.545 380.121 v 108.606 c 0 12.853 10.42 23.273 23.273 23.273 h 46.561 V 356.848 H 69.818 C 56.965 356.848 46.545 367.268 46.545 380.121 z" stroke-linecap="round"/>
</g>
		<g transform="matrix(1 0 0 1 -182.2952 -100.849)" id="Layer_1">
<path style="stroke: none; stroke-width: 1; stroke-dasharray: none; stroke-linecap: butt; stroke-dashoffset: 0; stroke-linejoin: miter; stroke-miterlimit: 4; is-custom-font: none; font-file-url: none; fill: rgb(255,12,56); fill-rule: nonzero; opacity: 1;" transform=" translate(-73.7048, -155.151)" d="M 85.333 0 C 73.533 0 63.598 8.833 62.219 20.553 L 31.189 284.31 c -0.776 6.602 1.306 13.219 5.724 18.185 c 4.417 4.966 10.746 7.807 17.391 7.807 h 62.076 V 0 H 85.333 z" stroke-linecap="round"/>
</g>
		<g transform="matrix(1 0 0 1 104.735 178.424)" id="Layer_1">
<path style="stroke: none; stroke-width: 1; stroke-dasharray: none; stroke-linecap: butt; stroke-dashoffset: 0; stroke-linejoin: miter; stroke-miterlimit: 4; is-custom-font: none; font-file-url: none; fill: rgb(255,12,56); fill-rule: nonzero; opacity: 1;" transform=" translate(-360.735, -434.424)" d="M 325.818 380.121 v 108.606 c 0 12.853 10.42 23.273 23.273 23.273 h 46.561 V 356.848 h -46.561 C 336.238 356.848 325.818 367.268 325.818 380.121 z" stroke-linecap="round"/>
</g>
		<g transform="matrix(1 0 0 1 96.9778 -100.8485)" id="Layer_1">
<path style="stroke: none; stroke-width: 1; stroke-dasharray: none; stroke-linecap: butt; stroke-dashoffset: 0; stroke-linejoin: miter; stroke-miterlimit: 4; is-custom-font: none; font-file-url: none; fill: rgb(255,12,56); fill-rule: nonzero; opacity: 1;" transform=" translate(-352.9778, -155.1515)" d="M 364.606 0 c -11.801 0 -21.735 8.833 -23.114 20.553 l -31.03 263.758 c -0.776 6.602 1.306 13.219 5.724 18.185 c 4.417 4.966 10.746 7.807 17.391 7.807 h 62.076 V 0 H 364.606 z" stroke-linecap="round"/>
</g>
		<g transform="matrix(1 0 0 1 139.636 77.5765)" id="Layer_1">
<path style="stroke: none; stroke-width: 1; stroke-dasharray: none; stroke-linecap: butt; stroke-dashoffset: 0; stroke-linejoin: miter; stroke-miterlimit: 4; is-custom-font: none; font-file-url: none; fill: rgb(255,182,85); fill-rule: nonzero; opacity: 1;" transform=" translate(-395.636, -333.5765)" d="M 488.727 263.758 h -93.091 h -93.091 c -12.853 0 -23.273 10.42 -23.273 23.273 v 93.091 c 0 12.853 10.42 23.273 23.273 23.273 h 93.091 h 93.091 c 12.853 0 23.273 -10.42 23.273 -23.273 V 287.03 C 512 274.178 501.58 263.758 488.727 263.758 z" stroke-linecap="round"/>
</g>
		<g transform="matrix(1 0 0 1 -139.636 77.576)" id="Layer_1">
<path style="stroke: none; stroke-width: 1; stroke-dasharray: none; stroke-linecap: butt; stroke-dashoffset: 0; stroke-linejoin: miter; stroke-miterlimit: 4; is-custom-font: none; font-file-url: none; fill: rgb(255,182,85); fill-rule: nonzero; opacity: 1;" transform=" translate(-116.364, -333.576)" d="M 209.455 263.758 h -93.091 H 23.273 C 10.42 263.758 0 274.178 0 287.03 v 93.091 c 0 12.853 10.42 23.273 23.273 23.273 h 93.091 h 93.091 c 12.853 0 23.273 -10.42 23.273 -23.273 V 287.03 C 232.727 274.178 222.307 263.758 209.455 263.758 z" stroke-linecap="round"/>
</g>
		<g transform="matrix(1 0 0 1 -197.818 77.576)" id="Layer_1">
<path style="stroke: none; stroke-width: 1; stroke-dasharray: none; stroke-linecap: butt; stroke-dashoffset: 0; stroke-linejoin: miter; stroke-miterlimit: 4; is-custom-font: none; font-file-url: none; fill: rgb(238,135,0); fill-rule: nonzero; opacity: 1;" transform=" translate(-58.182, -333.576)" d="M 23.273 263.758 C 10.42 263.758 0 274.178 0 287.03 v 93.091 c 0 12.853 10.42 23.273 23.273 23.273 h 93.091 V 263.758 H 23.273 z" stroke-linecap="round"/>
</g>
		<g transform="matrix(1 0 0 1 81.454 77.5765)" id="Layer_1">
<path style="stroke: none; stroke-width: 1; stroke-dasharray: none; stroke-linecap: butt; stroke-dashoffset: 0; stroke-linejoin: miter; stroke-miterlimit: 4; is-custom-font: none; font-file-url: none; fill: rgb(238,135,0); fill-rule: nonzero; opacity: 1;" transform=" translate(-337.454, -333.5765)" d="M 302.545 263.758 c -12.853 0 -23.273 10.42 -23.273 23.273 v 93.091 c 0 12.853 10.42 23.273 23.273 23.273 h 93.091 V 263.758 H 302.545 z" stroke-linecap="round"/>
</g>
</g>
</g>
<g transform="matrix(1.0087 0 0 1.0087 274.806 257.0222)" id="754172">
<g style="" vector-effect="non-scaling-stroke">
		<g transform="matrix(1 0 0 1 0 -7.5)" id="XMLID_667_">
<polyline style="stroke: none; stroke-width: 1; stroke-dasharray: none; stroke-linecap: butt; stroke-dashoffset: 0; stroke-linejoin: miter; stroke-miterlimit: 4; is-custom-font: none; font-file-url: none; fill: rgb(217,204,188); fill-rule: nonzero; opacity: 1;" points="-30,210 -30,-210 30,-210 30,210 "/>
</g>
		<g transform="matrix(1 0 0 1 -15 -7.5)" id="XMLID_668_">
<polyline style="stroke: none; stroke-width: 1; stroke-dasharray: none; stroke-linecap: butt; stroke-dashoffset: 0; stroke-linejoin: miter; stroke-miterlimit: 4; is-custom-font: none; font-file-url: none; fill: rgb(192,171,144); fill-rule: nonzero; opacity: 1;" points="-15,210 -15,-210 15,-210 15,210 "/>
</g>
		<g transform="matrix(1 0 0 1 -20 -107.5)" id="XMLID_671_">
<polygon style="stroke: none; stroke-width: 1; stroke-dasharray: none; stroke-linecap: butt; stroke-dashoffset: 0; stroke-linejoin: miter; stroke-miterlimit: 4; is-custom-font: none; font-file-url: none; fill: rgb(217,204,188); fill-rule: nonzero; opacity: 1;" points="180,50 -140,50 -180,0 -140,-50 180,-50 "/>
</g>
		<g transform="matrix(1 0 0 1 20 52.5)" id="XMLID_674_">
<polygon style="stroke: none; stroke-width: 1; stroke-dasharray: none; stroke-linecap: butt; stroke-dashoffset: 0; stroke-linejoin: miter; stroke-miterlimit: 4; is-custom-font: none; font-file-url: none; fill: rgb(217,204,188); fill-rule: nonzero; opacity: 1;" points="140,50 -180,50 -180,-50 140,-50 180,0 "/>
</g>
		<g transform="matrix(1 0 0 1 0 202.5)" id="XMLID_677_">
<rect style="stroke: none; stroke-width: 1; stroke-dasharray: none; stroke-linecap: butt; stroke-dashoffset: 0; stroke-linejoin: miter; stroke-miterlimit: 4; is-custom-font: none; font-file-url: none; fill: rgb(149,213,167); fill-rule: nonzero; opacity: 1;" x="-70" y="-15" rx="0" ry="0" width="140" height="30"/>
</g>
		<g transform="matrix(1 0 0 1 10 52.5)" id="XMLID_679_">
<rect style="stroke: none; stroke-width: 1; stroke-dasharray: none; stroke-linecap: butt; stroke-dashoffset: 0; stroke-linejoin: miter; stroke-miterlimit: 4; is-custom-font: none; font-file-url: none; fill: rgb(179,154,124); fill-rule: nonzero; opacity: 1;" x="-130" y="-15" rx="0" ry="0" width="260" height="30"/>
</g>
		<g transform="matrix(1 0 0 1 -10 -107.5)" id="XMLID_681_">
<rect style="stroke: none; stroke-width: 1; stroke-dasharray: none; stroke-linecap: butt; stroke-dashoffset: 0; stroke-linejoin: miter; stroke-miterlimit: 4; is-custom-font: none; font-file-url: none; fill: rgb(179,154,124); fill-rule: nonzero; opacity: 1;" x="-130" y="-15" rx="0" ry="0" width="260" height="30"/>
</g>
</g>
</g>
<g transform="matrix(0.8654 0 0 0.8654 750.607 741.877)" id="138463">
<g style="" vector-effect="non-scaling-stroke">
		<g transform="matrix(1 0 0 1 -0.001 -63.999)" id="Layer_1">
<path style="stroke: none; stroke-width: 1; stroke-dasharray: none; stroke-linecap: butt; stroke-dashoffset: 0; stroke-linejoin: miter; stroke-miterlimit: 4; is-custom-font: none; font-file-url: none; fill: rgb(230,233,237); fill-rule: nonzero; opacity: 1;" transform=" translate(-255.993, -191.995)" d="M 441.833 66.06 c -3.75 -1.75 -8.172 -1.172 -11.359 1.484 c -24.045 20.11 -53.045 30.75 -83.827 30.75 c -30.482 0 -60.311 -10.921 -83.998 -30.75 c -27.889 -23.249 -61.529 -35.546 -97.31 -35.546 c -34.78 0 -68.857 12.266 -96.139 34.562 c -3.125 1.875 -5.202 5.281 -5.202 9.172 v 232.525 c 0 4.141 2.39 7.906 6.14 9.656 c 3.766 1.75 8.188 1.172 11.359 -1.484 c 24.031 -20.093 53.03 -30.702 83.842 -30.702 s 59.796 10.609 83.826 30.718 c 27.468 22.922 62.093 35.547 97.481 35.547 c 34.781 0 68.858 -12.266 96.139 -34.578 c 3.109 -1.859 5.203 -5.266 5.203 -9.156 V 75.732 C 447.989 71.592 445.583 67.826 441.833 66.06 z" stroke-linecap="round"/>
</g>
		<g transform="matrix(1 0 0 1 143.996 -47.5151)" id="Layer_1">
<path style="stroke: none; stroke-width: 1; stroke-dasharray: none; stroke-linecap: butt; stroke-dashoffset: 0; stroke-linejoin: miter; stroke-miterlimit: 4; is-custom-font: none; font-file-url: none; fill: rgb(67,74,84); fill-rule: nonzero; opacity: 1;" transform=" translate(-399.99, -208.4788)" d="M 351.991 351.898 c 32.906 -1.188 64.921 -13.312 90.795 -34.484 c 3.109 -1.859 5.203 -5.266 5.203 -9.156 V 75.732 c 0 -4.141 -2.406 -7.906 -6.156 -9.672 c -3.75 -1.75 -8.172 -1.172 -11.359 1.484 c -22.655 18.953 -49.686 29.468 -78.482 30.64 L 351.991 351.898 L 351.991 351.898 z" stroke-linecap="round"/>
</g>
		<g transform="matrix(1 0 0 1 -48.0935 -79.162)" id="Layer_1">
<path style="stroke: none; stroke-width: 1; stroke-dasharray: none; stroke-linecap: butt; stroke-dashoffset: 0; stroke-linejoin: miter; stroke-miterlimit: 4; is-custom-font: none; font-file-url: none; fill: rgb(67,74,84); fill-rule: nonzero; opacity: 1;" transform=" translate(-207.9005, -176.832)" d="M 255.806 62.154 c -26.468 -19.749 -57.562 -30.155 -90.467 -30.155 c -1.781 0 -3.562 0.047 -5.344 0.109 v 253.729 c 1.766 -0.078 3.547 -0.109 5.344 -0.109 c 30.812 0 59.796 10.609 83.826 30.718 c 2.172 1.812 4.391 3.547 6.641 5.219 V 62.154 z" stroke-linecap="round"/>
</g>
		<g transform="matrix(1 0 0 1 -143.9965 -80.4833)" id="Layer_1">
<path style="stroke: none; stroke-width: 1; stroke-dasharray: none; stroke-linecap: butt; stroke-dashoffset: 0; stroke-linejoin: miter; stroke-miterlimit: 4; is-custom-font: none; font-file-url: none; fill: rgb(230,233,237); fill-rule: nonzero; opacity: 1;" transform=" translate(-111.9975, -175.5107)" d="M 69.201 66.56 c -3.125 1.875 -5.202 5.281 -5.202 9.172 v 232.525 c 0 4.141 2.39 7.906 6.14 9.656 c 3.766 1.75 8.188 1.172 11.359 -1.484 c 22.641 -18.921 49.687 -29.437 78.498 -30.593 l 0 0 V 32.108 C 127.091 33.296 95.092 45.405 69.201 66.56 z" stroke-linecap="round"/>
</g>
		<g transform="matrix(1 0 0 1 -143.9965 -15.7028)" id="Layer_1">
<path style="stroke: none; stroke-width: 1; stroke-dasharray: none; stroke-linecap: butt; stroke-dashoffset: 0; stroke-linejoin: miter; stroke-miterlimit: 4; is-custom-font: none; font-file-url: none; fill: rgb(67,74,84); fill-rule: nonzero; opacity: 1;" transform=" translate(-111.9975, -240.2912)" d="M 156.152 161.668 c -32.671 0 -64.779 8.938 -92.153 25.405 v 121.185 c 0 4.141 2.39 7.906 6.14 9.656 c 3.766 1.75 8.188 1.172 11.359 -1.484 c 22.641 -18.921 49.687 -29.437 78.498 -30.593 l 0 0 V 161.715 C 158.715 161.683 157.433 161.668 156.152 161.668 z" stroke-linecap="round"/>
</g>
		<g transform="matrix(1 0 0 1 -48.0935 -14.3045)" id="Layer_1">
<path style="stroke: none; stroke-width: 1; stroke-dasharray: none; stroke-linecap: butt; stroke-dashoffset: 0; stroke-linejoin: miter; stroke-miterlimit: 4; is-custom-font: none; font-file-url: none; fill: rgb(230,233,237); fill-rule: nonzero; opacity: 1;" transform=" translate(-207.9005, -241.6895)" d="M 255.806 321.664 V 191.839 c -28.124 -19.062 -60.983 -29.421 -95.811 -30.124 v 124.122 c 1.766 -0.078 3.547 -0.109 5.344 -0.109 c 30.812 0 59.796 10.609 83.826 30.718 C 251.338 318.258 253.556 319.992 255.806 321.664 z" stroke-linecap="round"/>
</g>
		<g transform="matrix(1 0 0 1 143.996 18.6325)" id="Layer_1">
<path style="stroke: none; stroke-width: 1; stroke-dasharray: none; stroke-linecap: butt; stroke-dashoffset: 0; stroke-linejoin: miter; stroke-miterlimit: 4; is-custom-font: none; font-file-url: none; fill: rgb(230,233,237); fill-rule: nonzero; opacity: 1;" transform=" translate(-399.99, -274.6265)" d="M 447.989 308.258 V 197.354 c -26.452 20.016 -58.311 30.609 -92.154 30.609 c -1.281 0 -2.562 -0.031 -3.844 -0.062 v 123.998 c 32.906 -1.188 64.921 -13.312 90.795 -34.484 C 445.895 315.555 447.989 312.148 447.989 308.258 z" stroke-linecap="round"/>
</g>
		<g transform="matrix(1 0 0 1 -181.3315 0)" id="Layer_1">
<path style="stroke: none; stroke-width: 1; stroke-dasharray: none; stroke-linecap: butt; stroke-dashoffset: 0; stroke-linejoin: miter; stroke-miterlimit: 4; is-custom-font: none; font-file-url: none; fill: rgb(237,85,100); fill-rule: nonzero; opacity: 1;" transform=" translate(-74.6625, -255.994)" d="M 74.654 511.988 c -5.891 0 -10.655 -4.766 -10.655 -10.656 V 10.671 C 63.999 4.78 68.764 0 74.654 0 s 10.672 4.781 10.672 10.671 v 490.661 C 85.326 507.223 80.545 511.988 74.654 511.988 z" stroke-linecap="round"/>
</g>
		<g transform="matrix(1 0 0 1 47.9045 15.9215)" id="Layer_1">
<path style="stroke: none; stroke-width: 1; stroke-dasharray: none; stroke-linecap: butt; stroke-dashoffset: 0; stroke-linejoin: miter; stroke-miterlimit: 4; is-custom-font: none; font-file-url: none; fill: rgb(67,74,84); fill-rule: nonzero; opacity: 1;" transform=" translate(-303.8985, -271.9155)" d="M 351.991 227.901 c -32.232 -0.797 -63.576 -11.609 -88.67 -30.687 c -2.469 -1.859 -4.969 -3.656 -7.515 -5.375 v 129.825 c 26.312 19.609 58.249 30.328 90.841 30.328 c 1.781 0 3.562 -0.031 5.344 -0.094 V 227.901 z" stroke-linecap="round"/>
</g>
</g>
</g>
<g transform="matrix(3.4169 0 0 3.4169 273.0127 737.0482)" id="301674">
<g style="" vector-effect="non-scaling-stroke">
		<g transform="matrix(1 0 0 1 0 -3.645)">
<path style="stroke: none; stroke-width: 1; stroke-dasharray: none; stroke-linecap: butt; stroke-dashoffset: 0; stroke-linejoin: miter; stroke-miterlimit: 4; is-custom-font: none; font-file-url: none; fill: rgb(230,74,25); fill-rule: nonzero; opacity: 1;" transform=" translate(-64, -60.355)" d="M 43.86 11.94 S 57.2 5.25 64 5.25 s 20.14 6.69 20.14 6.69 v 103.52 s -7.87 -3.22 -20.14 -3.22 s -20.14 3.22 -20.14 3.22 V 11.94 z" stroke-linecap="round"/>
</g>
		<g transform="matrix(1 0 0 1 -28.2634 0.5575)">
<path style="stroke: none; stroke-width: 1; stroke-dasharray: none; stroke-linecap: butt; stroke-dashoffset: 0; stroke-linejoin: miter; stroke-miterlimit: 4; is-custom-font: none; font-file-url: none; fill: rgb(255,145,0); fill-rule: nonzero; opacity: 1;" transform=" translate(-35.7366, -64.5575)" d="M 57.92 56.45 c 0 -7.67 -3.33 -12.66 -4.72 -15.91 c -2.26 -5.31 -3.22 -10.81 -3.41 -16.38 c -0.18 -5.39 2.15 -13.38 5.23 -17.86 c -8.39 3.55 -29.34 14.3 -29.55 14.56 c 0 0 0.61 19 -1.68 27.84 C 20.12 62.88 12.2 68.86 12.2 68.86 v 48.4 c 6.71 2.22 24.96 4.35 36.26 5.52 c 2.04 0.21 6.47 -0.54 8.05 -1.84 c 1.67 -1.37 2.71 -3.77 2.74 -5.93 c 0.23 -19.42 -1.33 -50.88 -1.33 -58.56 z" stroke-linecap="round"/>
</g>
		<g transform="matrix(1 0 0 1 -28.3 40.2457)">
<path style="stroke: none; stroke-width: 1; stroke-dasharray: none; stroke-linecap: butt; stroke-dashoffset: 0; stroke-linejoin: miter; stroke-miterlimit: 4; is-custom-font: none; font-file-url: none; fill: rgb(255,255,0); fill-rule: nonzero; opacity: 1;" transform=" translate(-35.7, -104.2457)" d="M 12.23 105.94 c 13.87 4.17 41.09 5.89 46.95 4.86 l -0.19 -8.12 c -5.86 -0.02 -32.74 -0.43 -46.77 -5.28 l 0.01 8.54 z" stroke-linecap="round"/>
</g>
		<g transform="matrix(1 0 0 1 -28.3 -11.294)">
<path style="stroke: none; stroke-width: 1; stroke-dasharray: none; stroke-linecap: butt; stroke-dashoffset: 0; stroke-linejoin: miter; stroke-miterlimit: 4; is-custom-font: none; font-file-url: none; fill: rgb(255,255,0); fill-rule: nonzero; opacity: 1;" transform=" translate(-35.7, -52.706)" d="M 58.99 84.36 s -7.17 0.35 -17.81 -0.71 l 1.31 -71.46 c -3.21 1.48 -8.33 4.16 -8.33 4.16 l -0.99 66.59 c -7.47 -0.8 -15.36 -2.05 -20.95 -3.98 v 8.54 c 13.87 4.17 41.11 6.51 46.96 5.48 l -0.19 -8.62 z" stroke-linecap="round"/>
</g>
		<g transform="matrix(1 0 0 1 -44.3749 -18.7737)">
<path style="stroke: none; stroke-width: 1; stroke-dasharray: none; stroke-linecap: butt; stroke-dashoffset: 0; stroke-linejoin: miter; stroke-miterlimit: 4; is-custom-font: none; font-file-url: none; fill: rgb(97,97,97); fill-rule: nonzero; opacity: 1;" transform=" translate(-19.625, -45.2264)" d="M 11.63 68.91 c -0.08 -1.19 -0.05 -1.66 0.37 -2.13 c 0.36 -0.41 0.77 -0.9 1.11 -1.33 c 0.98 -1.22 1.93 -2.46 2.83 -3.74 c 2.08 -2.94 4.06 -6.1 5.23 -9.53 c 2.24 -6.6 3.15 -13.6 3.37 -20.56 c 0.17 -5.2 -0.45 -10.04 -0.45 -10.04 s -0.21 -0.44 1.03 -1.09 c 1.24 -0.65 1.76 -0.4 1.76 -0.4 c 0.32 1.86 0.58 5.18 0.66 6.9 c 0.78 15.38 -2.62 23.58 -3.5 26.17 c -2.66 7.83 -10.09 16.49 -11.8 17.25 c 0.02 -0.01 -0.52 -0.31 -0.61 -1.5 z" stroke-linecap="round"/>
</g>
		<g transform="matrix(1 0 0 1 28.3038 0.5385)">
<path style="stroke: none; stroke-width: 1; stroke-dasharray: none; stroke-linecap: butt; stroke-dashoffset: 0; stroke-linejoin: miter; stroke-miterlimit: 4; is-custom-font: none; font-file-url: none; fill: rgb(255,145,0); fill-rule: nonzero; opacity: 1;" transform=" translate(-92.3038, -64.5385)" d="M 70.08 56.45 c 0 -7.67 3.33 -12.66 4.72 -15.91 c 2.26 -5.31 3.22 -10.81 3.41 -16.38 c 0.18 -5.39 -2.15 -13.38 -5.23 -17.86 c 8.39 3.55 29.34 14.3 29.55 14.56 c 0 0 -0.61 19 1.68 27.84 c 3.67 14.18 11.59 20.16 11.59 20.16 l -0.05 48.1 c -12.84 3.32 -25.32 5.5 -36.06 5.79 c -2.05 0.05 -6.05 0.23 -8.21 -1.81 c -2.52 -2.38 -2.63 -3.32 -2.65 -5.48 c -0.22 -19.42 1.25 -51.33 1.25 -59.01 z" stroke-linecap="round"/>
</g>
		<g transform="matrix(1 0 0 1 28.29 40.2457)">
<path style="stroke: none; stroke-width: 1; stroke-dasharray: none; stroke-linecap: butt; stroke-dashoffset: 0; stroke-linejoin: miter; stroke-miterlimit: 4; is-custom-font: none; font-file-url: none; fill: rgb(255,255,0); fill-rule: nonzero; opacity: 1;" transform=" translate(-92.29, -104.2457)" d="M 115.73 105.94 c -13.87 4.17 -41.05 5.89 -46.9 4.86 l 0.19 -8.12 c 5.86 -0.02 32.7 -0.43 46.73 -5.28 l -0.02 8.54 z" stroke-linecap="round"/>
</g>
		<g transform="matrix(1 0 0 1 28.29 -11.3489)">
<path style="stroke: none; stroke-width: 1; stroke-dasharray: none; stroke-linecap: butt; stroke-dashoffset: 0; stroke-linejoin: miter; stroke-miterlimit: 4; is-custom-font: none; font-file-url: none; fill: rgb(255,255,0); fill-rule: nonzero; opacity: 1;" transform=" translate(-92.29, -52.6511)" d="M 94.84 82.94 l -0.99 -66.59 s -5.12 -2.68 -8.33 -4.16 l 1.31 71.46 c -8.4 1.1 -17.81 1.22 -17.81 1.22 l -0.19 8.12 c 5.37 0.65 33.05 -1.31 46.92 -5.48 v -8.54 c -5.6 1.92 -13.44 3.17 -20.91 3.97 z" stroke-linecap="round"/>
</g>
		<g transform="matrix(1 0 0 1 44.375 -18.7737)">
<path style="stroke: none; stroke-width: 1; stroke-dasharray: none; stroke-linecap: butt; stroke-dashoffset: 0; stroke-linejoin: miter; stroke-miterlimit: 4; is-custom-font: none; font-file-url: none; fill: rgb(97,97,97); fill-rule: nonzero; opacity: 1;" transform=" translate(-108.375, -45.2264)" d="M 116.37 68.91 c 0.08 -1.19 0.05 -1.66 -0.37 -2.13 c -0.36 -0.41 -0.77 -0.9 -1.11 -1.33 c -0.98 -1.22 -1.93 -2.46 -2.83 -3.74 c -2.08 -2.94 -4.06 -6.1 -5.23 -9.53 c -2.24 -6.6 -3.15 -13.6 -3.37 -20.56 c -0.17 -5.2 0.45 -10.04 0.45 -10.04 s 0.21 -0.44 -1.03 -1.09 c -1.24 -0.65 -1.76 -0.4 -1.76 -0.4 c -0.32 1.86 -0.58 5.18 -0.66 6.9 c -0.78 15.38 2.62 23.58 3.5 26.17 c 2.66 7.83 10.09 16.49 11.8 17.25 c -0.02 -0.01 0.52 -0.31 0.61 -1.5 z" stroke-linecap="round"/>
</g>
		<g transform="matrix(1 0 0 1 0.0088 -0.0017)">
<path style="stroke: none; stroke-width: 1; stroke-dasharray: none; stroke-linecap: butt; stroke-dashoffset: 0; stroke-linejoin: miter; stroke-miterlimit: 4; is-custom-font: none; font-file-url: none; fill: rgb(97,97,97); fill-rule: nonzero; opacity: 1;" transform=" translate(-64.0088, -63.9983)" d="M 115.75 114.94 c -0.36 0.16 -1.43 0.4 -1.94 0.48 c -1.47 0.22 -18.33 4.14 -34.49 5.31 c -1.62 0.07 -4.78 0.15 -7.32 -1.75 c -1.07 -0.8 -1.49 -2.61 -1.48 -3.56 c 0.07 -6.28 1.27 -55.9 1.29 -56.41 c 0 -0.01 0.45 -6.97 2.13 -12.1 c 2.72 -8.33 5.98 -19.77 6.04 -26.96 c 0.04 -5.23 -1.29 -9.24 -3.94 -11.91 C 73.35 5.33 68.14 4 64 4 s -9.35 1.33 -12.03 4.03 c -2.66 2.68 -3.98 6.69 -3.94 11.91 c 0.06 7.19 3.31 18.63 6.04 26.96 c 1.68 5.13 2.12 12.09 2.13 12.1 c 0.01 0.51 1.22 50.13 1.29 56.41 c 0.01 0.94 -0.41 2.75 -1.48 3.56 c -2.53 1.91 -5.7 1.83 -7.32 1.75 c -16.17 -1.17 -33 -4.58 -34.49 -5 c -0.5 -0.14 -1.58 -0.31 -1.94 -0.48 c 0 0 -0.28 -0.03 -0.22 1.29 c 0.03 0.79 0.1 1.25 0.31 1.51 c 0.3 0.38 0.82 0.44 1.6 0.72 c 1.73 0.61 8.43 1.57 17.09 3.11 c 5.46 0.97 13.68 2.04 16.6 2.09 c 3.86 0.07 7.71 0.33 10.95 -2.76 c 1.42 -1.35 1.96 -3.02 1.94 -4.78 c -0.07 -6.3 -1.27 -56.97 -1.29 -57.54 c -0.02 -0.3 -0.47 -7.41 -2.27 -12.92 c -3.81 -11.65 -5.85 -20.66 -5.89 -26.04 c -0.03 -4.39 0.99 -7.67 3.06 -9.75 c 1.99 -2.01 5.4 -3.03 9.87 -3.11 c 4.47 0.08 7.87 1.1 9.87 3.11 c 2.07 2.08 3.09 5.36 3.06 9.75 c -0.04 5.38 -2.08 14.39 -5.89 26.04 c -1.8 5.51 -2.25 12.62 -2.27 12.92 c -0.01 0.57 -1.22 51.24 -1.29 57.54 c -0.02 1.77 0.52 3.44 1.94 4.78 c 3.25 3.09 7.09 2.83 10.95 2.76 c 2.92 -0.05 11.14 -1.12 16.6 -2.09 c 8.66 -1.53 15.35 -2.83 17.09 -3.39 c 0.9 -0.29 1.3 -0.34 1.6 -0.72 c 0.2 -0.26 0.27 -0.72 0.31 -1.51 c 0.05 -1.31 -0.23 -1.31 -0.23 -1.31 z" stroke-linecap="round"/>
</g>
</g>
</g>
</svg>